<?xml version="1.0" encoding="UTF-8" standalone="no"?>
<!-- Created with Inkscape (http://www.inkscape.org/) -->

<svg
   xmlns:dc="http://purl.org/dc/elements/1.1/"
   xmlns:cc="http://creativecommons.org/ns#"
   xmlns:rdf="http://www.w3.org/1999/02/22-rdf-syntax-ns#"
   xmlns:svg="http://www.w3.org/2000/svg"
   xmlns="http://www.w3.org/2000/svg"
   xmlns:sodipodi="http://sodipodi.sourceforge.net/DTD/sodipodi-0.dtd"
   xmlns:inkscape="http://www.inkscape.org/namespaces/inkscape"
   width="32.241009mm"
   height="42.585453mm"
   viewBox="0 0 114.23979 150.89334"
   id="svg2"
   version="1.1"
   inkscape:version="0.91 r13725"
   sodipodi:docname="taking a test Oliva.svg">
  <defs
     id="defs4">
    <clipPath
       id="clipEmfPath1"
       clipPathUnits="userSpaceOnUse">
      <path
         inkscape:connector-curvature="0"
         id="path3341"
         d="m 7.50172,-2.50057 411.34428,0 0,541.37357 -411.34428,0 z" />
    </clipPath>
    <pattern
       y="0"
       x="0"
       height="6"
       width="6"
       patternUnits="userSpaceOnUse"
       id="EMFhbasepattern" />
  </defs>
  <sodipodi:namedview
     id="base"
     pagecolor="#ffffff"
     bordercolor="#666666"
     borderopacity="1.0"
     inkscape:pageopacity="0.0"
     inkscape:pageshadow="2"
     inkscape:zoom="0.35"
     inkscape:cx="232.11989"
     inkscape:cy="-30.267616"
     inkscape:document-units="px"
     inkscape:current-layer="layer1"
     showgrid="false"
     fit-margin-top="0"
     fit-margin-left="0"
     fit-margin-right="0"
     fit-margin-bottom="0"
     inkscape:window-width="1366"
     inkscape:window-height="706"
     inkscape:window-x="-8"
     inkscape:window-y="-8"
     inkscape:window-maximized="1" />
  <metadata
     id="metadata7">
    <rdf:RDF>
      <cc:Work
         rdf:about="">
        <dc:format>image/svg+xml</dc:format>
        <dc:type
           rdf:resource="http://purl.org/dc/dcmitype/StillImage" />
        <dc:title></dc:title>
      </cc:Work>
    </rdf:RDF>
  </metadata>
  <g
     inkscape:label="Layer 1"
     inkscape:groupmode="layer"
     id="layer1"
     transform="translate(-142.88011,-351.20124)">
    <path
       inkscape:connector-curvature="0"
       id="path3344"
       d="m 181.52785,395.71881 0,40.8432 2.82279,0 0,-40.8432 -2.82279,0 z"
       style="fill:#808080;fill-opacity:1;fill-rule:evenodd;stroke:none" />
    <path
       inkscape:connector-curvature="0"
       id="path3346"
       d="m 181.52785,395.71881 0,40.8432 2.82279,0 0,-40.8432 z"
       style="fill:none;stroke:#000000;stroke-width:0.94830716px;stroke-linecap:butt;stroke-linejoin:miter;stroke-miterlimit:8;stroke-dasharray:none;stroke-opacity:1" />
    <path
       inkscape:connector-curvature="0"
       id="path3348"
       d="m 205.91919,395.71881 0,40.8432 2.82279,0 0,-40.8432 -2.82279,0 z"
       style="fill:#808080;fill-opacity:1;fill-rule:evenodd;stroke:none" />
    <path
       inkscape:connector-curvature="0"
       id="path3350"
       d="m 205.91919,395.71881 0,40.8432 2.82279,0 0,-40.8432 z"
       style="fill:none;stroke:#000000;stroke-width:0.94830716px;stroke-linecap:butt;stroke-linejoin:miter;stroke-miterlimit:8;stroke-dasharray:none;stroke-opacity:1" />
    <path
       inkscape:connector-curvature="0"
       id="path3352"
       d="m 178.04325,434.66548 0,36.07985 2.82279,0 0,-36.07985 -2.82279,0 z"
       style="fill:#a6a6a6;fill-opacity:1;fill-rule:evenodd;stroke:none" />
    <path
       inkscape:connector-curvature="0"
       id="path3354"
       d="m 178.04325,434.66548 0,36.07985 2.82279,0 0,-36.07985 z"
       style="fill:none;stroke:#000000;stroke-width:0.94830716px;stroke-linecap:butt;stroke-linejoin:miter;stroke-miterlimit:8;stroke-dasharray:none;stroke-opacity:1" />
    <path
       inkscape:connector-curvature="0"
       id="path3356"
       d="m 180.84403,473.56812 -0.72757,-2.11724 -1.43369,0 -0.70556,2.11724 z"
       style="fill:#a6a6a6;fill-opacity:1;fill-rule:evenodd;stroke:none" />
    <path
       inkscape:connector-curvature="0"
       id="path3358"
       d="m 180.84403,473.56812 -0.72757,-2.11724 -1.43369,0 -0.70556,2.11724 z"
       style="fill:none;stroke:#000000;stroke-width:0.94830716px;stroke-linecap:butt;stroke-linejoin:miter;stroke-miterlimit:8;stroke-dasharray:none;stroke-opacity:1" />
    <path
       inkscape:connector-curvature="0"
       id="path3360"
       d="m 209.53587,434.97423 0,35.7711 2.86709,0 0,-35.7711 -2.86709,0 z"
       style="fill:#a6a6a6;fill-opacity:1;fill-rule:evenodd;stroke:none" />
    <path
       inkscape:connector-curvature="0"
       id="path3362"
       d="m 209.53587,434.97423 0,35.7711 2.86709,0 0,-35.7711 z"
       style="fill:none;stroke:#000000;stroke-width:0.94830716px;stroke-linecap:butt;stroke-linejoin:miter;stroke-miterlimit:8;stroke-dasharray:none;stroke-opacity:1" />
    <path
       inkscape:connector-curvature="0"
       id="path3364"
       d="m 212.40296,473.56812 -0.70583,-2.11724 -1.43341,0 -0.72785,2.11724 z"
       style="fill:#a6a6a6;fill-opacity:1;fill-rule:evenodd;stroke:none" />
    <path
       inkscape:connector-curvature="0"
       id="path3366"
       d="m 212.40296,473.56812 -0.70583,-2.11724 -1.43341,0 -0.72785,2.11724 z"
       style="fill:none;stroke:#000000;stroke-width:0.94830716px;stroke-linecap:butt;stroke-linejoin:miter;stroke-miterlimit:8;stroke-dasharray:none;stroke-opacity:1" />
    <path
       inkscape:connector-curvature="0"
       id="path3368"
       d="m 175.92602,395.057 c -1.30104,0 -2.35966,1.05861 -2.35966,2.35994 l 0,9.50496 c 0,1.30133 1.05862,2.38196 2.35966,2.38196 l 36.87375,0 c 1.30132,0 2.35994,-1.08063 2.35994,-2.38196 l 0,-9.50496 c 0,-1.30133 -1.05862,-2.35994 -2.35994,-2.35994 z"
       style="fill:#fdece1;fill-opacity:1;fill-rule:evenodd;stroke:none" />
    <path
       inkscape:connector-curvature="0"
       id="path3370"
       d="m 175.92602,395.057 c -1.30104,0 -2.35966,1.05861 -2.35966,2.35994 l 0,9.50496 c 0,1.30133 1.05862,2.38196 2.35966,2.38196 l 36.87375,0 c 1.30132,0 2.35994,-1.08063 2.35994,-2.38196 l 0,-9.50496 c 0,-1.30133 -1.05862,-2.35994 -2.35994,-2.35994 z"
       style="fill:none;stroke:#000000;stroke-width:0.94830716px;stroke-linecap:butt;stroke-linejoin:round;stroke-miterlimit:10;stroke-dasharray:none;stroke-opacity:1" />
    <path
       inkscape:connector-curvature="0"
       id="path3372"
       d="m 179.01353,453.52131 37.6016,11.95324 0.77188,-2.40397 -37.6016,-11.95296 z"
       style="fill:#a6a6a6;fill-opacity:1;fill-rule:evenodd;stroke:none" />
    <path
       inkscape:connector-curvature="0"
       id="path3374"
       d="m 179.01353,453.52131 37.6016,11.95324 0.77188,-2.40397 -37.6016,-11.95296 z"
       style="fill:none;stroke:#000000;stroke-width:0.94830716px;stroke-linecap:butt;stroke-linejoin:miter;stroke-miterlimit:8;stroke-dasharray:none;stroke-opacity:1" />
    <path
       inkscape:connector-curvature="0"
       id="path3376"
       d="m 210.52844,451.02928 -36.87374,13.03387 0.83792,2.38168 36.87374,-13.03387 z"
       style="fill:#a6a6a6;fill-opacity:1;fill-rule:evenodd;stroke:none" />
    <path
       inkscape:connector-curvature="0"
       id="path3378"
       d="m 210.52844,451.02928 -36.87374,13.03387 0.83792,2.38168 36.87374,-13.03387 z"
       style="fill:none;stroke:#000000;stroke-width:0.94830716px;stroke-linecap:butt;stroke-linejoin:miter;stroke-miterlimit:8;stroke-dasharray:none;stroke-opacity:1" />
    <path
       inkscape:connector-curvature="0"
       id="path3380"
       d="m 175.94832,484.5951 -0.88223,-2.62438 -1.80848,0 -0.88222,2.62438 z"
       style="fill:#a6a6a6;fill-opacity:1;fill-rule:evenodd;stroke:none" />
    <path
       inkscape:connector-curvature="0"
       id="path3382"
       d="m 175.94832,484.5951 -0.88223,-2.62438 -1.80848,0 -0.88222,2.62438 z"
       style="fill:none;stroke:#000000;stroke-width:0.94830716px;stroke-linecap:butt;stroke-linejoin:miter;stroke-miterlimit:8;stroke-dasharray:none;stroke-opacity:1" />
    <path
       inkscape:connector-curvature="0"
       id="path3384"
       d="m 172.57407,434.97423 0,46.33468 3.37425,0 0,-46.33468 -3.37425,0 z"
       style="fill:#a6a6a6;fill-opacity:1;fill-rule:evenodd;stroke:none" />
    <path
       inkscape:connector-curvature="0"
       id="path3386"
       d="m 172.57407,434.97423 0,46.33468 3.37425,0 0,-46.33468 z"
       style="fill:none;stroke:#000000;stroke-width:0.94830716px;stroke-linecap:butt;stroke-linejoin:miter;stroke-miterlimit:8;stroke-dasharray:none;stroke-opacity:1" />
    <path
       inkscape:connector-curvature="0"
       id="path3388"
       d="m 214.14512,435.65777 0,45.65114 3.57265,0 0,-45.65114 -3.57265,0 z"
       style="fill:#a6a6a6;fill-opacity:1;fill-rule:evenodd;stroke:none" />
    <path
       inkscape:connector-curvature="0"
       id="path3390"
       d="m 214.14512,435.65777 0,45.65114 3.57265,0 0,-45.65114 z"
       style="fill:none;stroke:#000000;stroke-width:0.94830716px;stroke-linecap:butt;stroke-linejoin:miter;stroke-miterlimit:8;stroke-dasharray:none;stroke-opacity:1" />
    <path
       inkscape:connector-curvature="0"
       id="path3392"
       d="m 217.71777,484.5951 -0.88222,-2.62438 -1.78619,0 -0.90424,2.62438 z"
       style="fill:#a6a6a6;fill-opacity:1;fill-rule:evenodd;stroke:none" />
    <path
       inkscape:connector-curvature="0"
       id="path3394"
       d="m 217.71777,484.5951 -0.88222,-2.62438 -1.78619,0 -0.90424,2.62438 z"
       style="fill:none;stroke:#000000;stroke-width:0.94830716px;stroke-linecap:butt;stroke-linejoin:miter;stroke-miterlimit:8;stroke-dasharray:none;stroke-opacity:1" />
    <path
       inkscape:connector-curvature="0"
       id="path3396"
       d="m 178.46235,450.03699 0,6.30739 1.94056,0 0,-6.30739 -1.94056,0 z"
       style="fill:#a6a6a6;fill-opacity:1;fill-rule:evenodd;stroke:none" />
    <path
       inkscape:connector-curvature="0"
       id="path3398"
       d="m 209.99899,450.03699 0,6.30739 1.91883,0 0,-6.30739 -1.91883,0 z"
       style="fill:#a6a6a6;fill-opacity:1;fill-rule:evenodd;stroke:none" />
    <path
       inkscape:connector-curvature="0"
       id="path3400"
       d="m 192.42219,455.63854 -0.3968,1.52174 3.6607,0.97028 0.39709,-1.52174 z"
       style="fill:#a6a6a6;fill-opacity:1;fill-rule:evenodd;stroke:none" />
    <path
       inkscape:connector-curvature="0"
       id="path3402"
       d="m 167.5237,441.94314 c -0.52928,0 -0.97036,0.44111 -0.97036,0.97028 0,0.55146 0.44108,0.99258 0.97036,0.99258 l 53.78874,0 c 0.55146,0 0.99257,-0.44112 0.99257,-0.99258 0,-0.52917 -0.44111,-0.97028 -0.99257,-0.97028 z"
       style="fill:#f5b183;fill-opacity:1;fill-rule:evenodd;stroke:none" />
    <path
       inkscape:connector-curvature="0"
       id="path3404"
       d="m 167.5237,441.94314 c -0.52928,0 -0.97036,0.44111 -0.97036,0.97028 0,0.55146 0.44108,0.99258 0.97036,0.99258 l 53.78874,0 c 0.55146,0 0.99257,-0.44112 0.99257,-0.99258 0,-0.52917 -0.44111,-0.97028 -0.99257,-0.97028 z"
       style="fill:none;stroke:#000000;stroke-width:0.94830716px;stroke-linecap:butt;stroke-linejoin:round;stroke-miterlimit:10;stroke-dasharray:none;stroke-opacity:1" />
    <path
       inkscape:connector-curvature="0"
       id="path3406"
       d="m 222.15064,442.11953 -5.33711,-9.65934 -44.76891,0 -5.33691,9.65934 z"
       style="fill:#f8cbad;fill-opacity:1;fill-rule:evenodd;stroke:none" />
    <path
       inkscape:connector-curvature="0"
       id="path3408"
       d="m 222.15064,442.11953 -5.33711,-9.65934 -44.76891,0 -5.33691,9.65934 z"
       style="fill:none;stroke:#000000;stroke-width:0.94830716px;stroke-linecap:butt;stroke-linejoin:miter;stroke-miterlimit:8;stroke-dasharray:none;stroke-opacity:1" />
    <path
       inkscape:connector-curvature="0"
       id="path3410"
       d="m 201.46431,489.75554 c -0.48514,0 -0.86021,0.37479 -0.86021,0.83791 l 0,3.44057 c 0,0.46313 0.37507,0.85994 0.86021,0.85994 l 5.93231,0 c 0.48514,0 0.86022,-0.39681 0.86022,-0.85994 l 0,-3.44057 c 0,-0.46312 -0.37508,-0.83791 -0.86022,-0.83791 z"
       style="fill:#262626;fill-opacity:1;fill-rule:evenodd;stroke:none" />
    <path
       inkscape:connector-curvature="0"
       id="path3412"
       d="m 201.46431,489.75554 c -0.48514,0 -0.86021,0.37479 -0.86021,0.83791 l 0,3.44057 c 0,0.46313 0.37507,0.85994 0.86021,0.85994 l 5.93231,0 c 0.48514,0 0.86022,-0.39681 0.86022,-0.85994 l 0,-3.44057 c 0,-0.46312 -0.37508,-0.83791 -0.86022,-0.83791 z"
       style="fill:none;stroke:#000000;stroke-width:0.94830716px;stroke-linecap:butt;stroke-linejoin:round;stroke-miterlimit:10;stroke-dasharray:none;stroke-opacity:1" />
    <path
       inkscape:connector-curvature="0"
       id="path3414"
       d="m 184.54904,489.99825 c -0.46313,0 -0.85993,0.3968 -0.85993,0.85993 l 0,3.41827 c 0,0.48514 0.3968,0.86022 0.85993,0.86022 l 5.95461,0 c 0.46312,0 0.85993,-0.37508 0.85993,-0.86022 l 0,-3.41827 c 0,-0.46313 -0.39681,-0.85993 -0.85993,-0.85993 z"
       style="fill:#262626;fill-opacity:1;fill-rule:evenodd;stroke:none" />
    <path
       inkscape:connector-curvature="0"
       id="path3416"
       d="m 184.54904,489.99825 c -0.46313,0 -0.85993,0.3968 -0.85993,0.85993 l 0,3.41827 c 0,0.48514 0.3968,0.86022 0.85993,0.86022 l 5.95461,0 c 0.46312,0 0.85993,-0.37508 0.85993,-0.86022 l 0,-3.41827 c 0,-0.46313 -0.39681,-0.85993 -0.85993,-0.85993 z"
       style="fill:none;stroke:#000000;stroke-width:0.94830716px;stroke-linecap:butt;stroke-linejoin:round;stroke-miterlimit:10;stroke-dasharray:none;stroke-opacity:1" />
    <path
       inkscape:connector-curvature="0"
       id="path3418"
       d="m 217.1443,452.17595 -1.25702,15.85666 -42.78404,0.70584 2.77876,-35.68277 z"
       style="fill:#2d4e6b;fill-opacity:1;fill-rule:evenodd;stroke:none" />
    <path
       inkscape:connector-curvature="0"
       id="path3420"
       d="m 217.1443,452.17595 -1.25702,15.85666 -42.78404,0.70584 2.77876,-35.68277"
       style="fill:none;stroke:#000000;stroke-width:0.94830716px;stroke-linecap:butt;stroke-linejoin:round;stroke-miterlimit:10;stroke-dasharray:none;stroke-opacity:1" />
    <path
       inkscape:connector-curvature="0"
       id="path3422"
       d="m 194.82616,466.02573 c -11.99726,0 -21.72292,1.27931 -21.72292,2.84508 0,1.58778 9.72566,2.86681 21.72292,2.86681 11.99727,0 21.72293,-1.27903 21.72293,-2.86681 0,-1.56577 -9.72566,-2.84508 -21.72293,-2.84508 z"
       style="fill:#2d4e6b;fill-opacity:1;fill-rule:evenodd;stroke:none" />
    <path
       inkscape:connector-curvature="0"
       id="path3424"
       d="m 194.82616,466.02573 c -11.99726,0 -21.72292,1.27931 -21.72292,2.84508 0,1.58778 9.72566,2.86681 21.72292,2.86681 11.99727,0 21.72293,-1.27903 21.72293,-2.86681 0,-1.56577 -9.72566,-2.84508 -21.72293,-2.84508"
       style="fill:none;stroke:#000000;stroke-width:0.94830716px;stroke-linecap:butt;stroke-linejoin:round;stroke-miterlimit:10;stroke-dasharray:none;stroke-opacity:1" />
    <path
       inkscape:connector-curvature="0"
       id="path3426"
       d="m 203.2505,451.40408 -1.21271,16.36409"
       style="fill:none;stroke:#000000;stroke-width:0.94830716px;stroke-linecap:butt;stroke-linejoin:round;stroke-miterlimit:10;stroke-dasharray:none;stroke-opacity:1" />
    <path
       inkscape:connector-curvature="0"
       id="path3428"
       d="m 202.32424,459.43189 -0.57319,6.59384 4.4989,0.48514 3.24189,-3.59467 -7.1676,-3.48431 z"
       style="fill:#2d4e6b;fill-opacity:1;fill-rule:evenodd;stroke:none" />
    <path
       inkscape:connector-curvature="0"
       id="path3430"
       d="m 203.44918,485.01392 c -2.09522,0.4191 -3.10952,4.03578 -2.29362,8.07184 0.83792,4.01376 3.19786,6.9469 5.27078,6.5278 2.09522,-0.44112 3.10953,-4.05779 2.29362,-8.07156 -0.8159,-4.03606 -3.17584,-6.96919 -5.27078,-6.52808 z"
       style="fill:#262626;fill-opacity:1;fill-rule:evenodd;stroke:none" />
    <path
       inkscape:connector-curvature="0"
       id="path3432"
       d="m 203.44918,485.01392 c -2.09522,0.4191 -3.10952,4.03578 -2.29362,8.07184 0.83792,4.01376 3.19786,6.9469 5.27078,6.5278 2.09522,-0.44112 3.10953,-4.05779 2.29362,-8.07156 -0.8159,-4.03606 -3.17584,-6.96919 -5.27078,-6.52808"
       style="fill:none;stroke:#000000;stroke-width:0.94830716px;stroke-linecap:butt;stroke-linejoin:round;stroke-miterlimit:10;stroke-dasharray:none;stroke-opacity:1" />
    <path
       inkscape:connector-curvature="0"
       id="path3434"
       d="m 199.69986,466.24642 c -0.15438,2.77876 1.91883,12.59248 2.24959,16.62826 0.35278,4.05807 -0.74986,6.26335 -0.22041,7.67475 0.52916,1.41139 2.44771,0.79389 3.37396,0.8159 0.94855,0.0223 1.94085,0.26473 2.27161,-0.66153 0.35278,-0.92625 -0.66153,-1.34535 -0.1984,-4.85168 0.48514,-3.4846 2.55806,-12.87949 3.0655,-16.07707 0.50715,-3.17585 1.235,-2.47001 0,-3.04349 -1.23501,-0.59548 -5.64586,-0.37507 -7.38802,-0.46312 -1.76445,-0.0663 -2.51403,-0.022 -3.15383,-0.022 z"
       style="fill:#f3a067;fill-opacity:1;fill-rule:evenodd;stroke:none" />
    <path
       inkscape:connector-curvature="0"
       id="path3436"
       d="m 199.69986,466.24642 c -0.15438,2.77876 1.91883,12.59248 2.24959,16.62826 0.35278,4.05807 -0.74986,6.26335 -0.22041,7.67475 0.52916,1.41139 2.44771,0.79389 3.37396,0.8159 0.94855,0.0223 1.94085,0.26473 2.27161,-0.66153 0.35278,-0.92625 -0.66153,-1.34535 -0.1984,-4.85168 0.48514,-3.4846 2.55806,-12.87949 3.0655,-16.07707 0.50715,-3.17585 1.235,-2.47001 0,-3.04349 -1.23501,-0.59548 -5.64586,-0.37507 -7.38802,-0.46312 -1.76445,-0.0663 -2.51403,-0.022 -3.15383,-0.022"
       style="fill:none;stroke:#000000;stroke-width:0.94830716px;stroke-linecap:butt;stroke-linejoin:round;stroke-miterlimit:10;stroke-dasharray:none;stroke-opacity:1" />
    <path
       inkscape:connector-curvature="0"
       id="path3438"
       d="m 186.5119,484.66114 c -2.09522,0.44112 -3.10953,4.05779 -2.29362,8.07156 0.8159,4.03578 3.17584,6.96891 5.27078,6.52808 2.09522,-0.4191 3.10952,-4.03606 2.29362,-8.07184 -0.83792,-4.01376 -3.19786,-6.9469 -5.27078,-6.5278 z"
       style="fill:#262626;fill-opacity:1;fill-rule:evenodd;stroke:none" />
    <path
       inkscape:connector-curvature="0"
       id="path3440"
       d="m 186.5119,484.66114 c -2.09522,0.44112 -3.10953,4.05779 -2.29362,8.07156 0.8159,4.03578 3.17584,6.96891 5.27078,6.52808 2.09522,-0.4191 3.10952,-4.03606 2.29362,-8.07184 -0.83792,-4.01376 -3.19786,-6.9469 -5.27078,-6.5278"
       style="fill:none;stroke:#000000;stroke-width:0.94830716px;stroke-linecap:butt;stroke-linejoin:round;stroke-miterlimit:10;stroke-dasharray:none;stroke-opacity:1" />
    <path
       inkscape:connector-curvature="0"
       id="path3442"
       d="m 182.98327,465.82732 c -0.13236,2.80078 1.85251,12.59276 2.18327,16.65055 0.33077,4.05779 -0.72757,6.24106 -0.22041,7.67475 0.50715,1.4114 2.35966,0.79389 3.2639,0.81591 0.90424,0.022 1.83049,0.24243 2.16126,-0.68383 0.33076,-0.90396 -0.63952,-1.34507 -0.17639,-4.82967 0.46312,-3.48431 2.44799,-12.90122 2.93313,-16.07707 0.48514,-3.19786 1.19098,-2.47001 0,-3.0655 -1.19098,-0.57347 -5.42516,-0.35277 -7.10127,-0.44111 -1.69813,-0.0881 -2.40397,-0.044 -3.04349,-0.044 z"
       style="fill:#f3a067;fill-opacity:1;fill-rule:evenodd;stroke:none" />
    <path
       inkscape:connector-curvature="0"
       id="path3444"
       d="m 182.98327,465.82732 c -0.13236,2.80078 1.85251,12.59276 2.18327,16.65055 0.33077,4.05779 -0.72757,6.24106 -0.22041,7.67475 0.50715,1.4114 2.35966,0.79389 3.2639,0.81591 0.90424,0.022 1.83049,0.24243 2.16126,-0.68383 0.33076,-0.90396 -0.63952,-1.34507 -0.17639,-4.82967 0.46312,-3.48431 2.44799,-12.90122 2.93313,-16.07707 0.48514,-3.19786 1.19098,-2.47001 0,-3.0655 -1.19098,-0.57347 -5.42516,-0.35277 -7.10127,-0.44111 -1.69813,-0.0881 -2.40397,-0.044 -3.04349,-0.044"
       style="fill:none;stroke:#000000;stroke-width:0.94830716px;stroke-linecap:butt;stroke-linejoin:round;stroke-miterlimit:10;stroke-dasharray:none;stroke-opacity:1" />
    <path
       inkscape:connector-curvature="0"
       id="path3446"
       d="m 181.96897,457.44702 -0.74987,9.24052 20.73035,1.67583 0.74987,-9.24023 z"
       style="fill:#fbfbfb;fill-opacity:1;fill-rule:evenodd;stroke:none" />
    <path
       inkscape:connector-curvature="0"
       id="path3448"
       d="m 181.96897,457.44702 -0.74987,9.24052 20.73035,1.67583 0.74987,-9.24023 z"
       style="fill:none;stroke:#000000;stroke-width:0.94830716px;stroke-linecap:butt;stroke-linejoin:miter;stroke-miterlimit:8;stroke-dasharray:none;stroke-opacity:1" />
    <path
       inkscape:connector-curvature="0"
       id="path3450"
       d="m 181.68223,457.16028 -0.74987,9.24052 20.73035,1.67612 0.74987,-9.24052 z"
       style="fill:#2d4e6b;fill-opacity:1;fill-rule:evenodd;stroke:none" />
    <path
       inkscape:connector-curvature="0"
       id="path3452"
       d="m 201.92744,466.24642 5.4912,0.39681"
       style="fill:none;stroke:#000000;stroke-width:0.94830716px;stroke-linecap:butt;stroke-linejoin:round;stroke-miterlimit:10;stroke-dasharray:none;stroke-opacity:1" />
    <path
       inkscape:connector-curvature="0"
       id="path3454"
       d="m 194.05429,371.48176 c -2.51404,-0.1323 -6.48378,2.40386 -7.7408,4.25637 -1.27931,1.8525 0.90424,4.96194 0.13237,6.83674 -0.77188,1.89654 -4.38884,2.44772 -4.78565,4.43259 -0.39708,2.00688 0.3748,5.82224 2.40369,7.49836 2.00688,1.6541 6.46176,2.55806 9.70365,2.49202 3.21987,-0.066 7.71878,-1.19098 9.70364,-2.91112 1.96286,-1.69813 2.53605,-5.57953 2.13925,-7.34371 -0.39709,-1.76445 -3.81536,-1.49972 -4.54321,-3.19786 -0.70556,-1.67611 1.43368,-4.96211 0.28673,-6.92488 -1.12465,-1.96277 -4.80765,-4.98413 -7.29967,-5.13851 z"
       style="fill:#f3a067;fill-opacity:1;fill-rule:evenodd;stroke:none" />
    <path
       inkscape:connector-curvature="0"
       id="path3456"
       d="m 194.05429,371.48176 c -2.51404,-0.1323 -6.48378,2.40386 -7.7408,4.25637 -1.27931,1.8525 0.90424,4.96194 0.13237,6.83674 -0.77188,1.89654 -4.38884,2.44772 -4.78565,4.43259 -0.39708,2.00688 0.3748,5.82224 2.40369,7.49836 2.00688,1.6541 6.46176,2.55806 9.70365,2.49202 3.21987,-0.066 7.71878,-1.19098 9.70364,-2.91112 1.96286,-1.69813 2.53605,-5.57953 2.13925,-7.34371 -0.39709,-1.76445 -3.81536,-1.49972 -4.54321,-3.19786 -0.70556,-1.67611 1.43368,-4.96211 0.28673,-6.92488 -1.12465,-1.96277 -4.80765,-4.98413 -7.29967,-5.13851"
       style="fill:none;stroke:#000000;stroke-width:0.94830716px;stroke-linecap:butt;stroke-linejoin:round;stroke-miterlimit:10;stroke-dasharray:none;stroke-opacity:1" />
    <path
       inkscape:connector-curvature="0"
       id="path3458"
       d="m 194.03227,352.6259 c -6.50578,0 -11.77685,6.68226 -11.77685,14.93032 0,8.24806 5.27107,14.93032 11.77685,14.93032 6.50579,0 11.79858,-6.68226 11.79858,-14.93032 0,-8.24806 -5.29279,-14.93032 -11.79858,-14.93032 z"
       style="fill:#f3a067;fill-opacity:1;fill-rule:evenodd;stroke:none" />
    <path
       inkscape:connector-curvature="0"
       id="path3460"
       d="m 194.03227,352.6259 c -6.50578,0 -11.77685,6.68226 -11.77685,14.93032 0,8.24806 5.27107,14.93032 11.77685,14.93032 6.50579,0 11.79858,-6.68226 11.79858,-14.93032 0,-8.24806 -5.29279,-14.93032 -11.79858,-14.93032"
       style="fill:none;stroke:#000000;stroke-width:0.94830716px;stroke-linecap:butt;stroke-linejoin:round;stroke-miterlimit:10;stroke-dasharray:none;stroke-opacity:1" />
    <path
       inkscape:connector-curvature="0"
       id="path3462"
       d="m 193.15005,374.01795 c -0.22042,0 -0.3748,0.15438 -0.3748,0.30875 0,0.17642 0.15438,0.30876 0.3748,0.30876 0.22041,0 0.39708,-0.13234 0.39708,-0.30876 0,-0.15437 -0.17667,-0.30875 -0.39708,-0.30875 z"
       style="fill:#f3a067;fill-opacity:1;fill-rule:evenodd;stroke:none" />
    <path
       inkscape:connector-curvature="0"
       id="path3464"
       d="m 193.15005,374.01795 c -0.22042,0 -0.3748,0.15438 -0.3748,0.30875 0,0.17642 0.15438,0.30876 0.3748,0.30876 0.22041,0 0.39708,-0.13234 0.39708,-0.30876 0,-0.15437 -0.17667,-0.30875 -0.39708,-0.30875"
       style="fill:none;stroke:#000000;stroke-width:0.70571697px;stroke-linecap:butt;stroke-linejoin:round;stroke-miterlimit:10;stroke-dasharray:none;stroke-opacity:1" />
    <path
       inkscape:connector-curvature="0"
       id="path3466"
       d="m 194.64977,374.01795 c -0.19868,0 -0.37507,0.15438 -0.37507,0.30875 0,0.17642 0.17639,0.30876 0.37507,0.30876 0.22042,0 0.39681,-0.13234 0.39681,-0.30876 0,-0.15437 -0.17639,-0.30875 -0.39681,-0.30875 z"
       style="fill:#f3a067;fill-opacity:1;fill-rule:evenodd;stroke:none" />
    <path
       inkscape:connector-curvature="0"
       id="path3468"
       d="m 194.64977,374.01795 c -0.19868,0 -0.37507,0.15438 -0.37507,0.30875 0,0.17642 0.17639,0.30876 0.37507,0.30876 0.22042,0 0.39681,-0.13234 0.39681,-0.30876 0,-0.15437 -0.17639,-0.30875 -0.39681,-0.30875"
       style="fill:none;stroke:#000000;stroke-width:0.70571697px;stroke-linecap:butt;stroke-linejoin:round;stroke-miterlimit:10;stroke-dasharray:none;stroke-opacity:1" />
    <path
       inkscape:connector-curvature="0"
       id="path3470"
       d="m 193.74553,372.71677 c -0.0663,-0.0441 -0.28673,-0.30875 -0.4191,-0.28668 -0.15437,0.022 -0.22041,0.26464 -0.3968,0.3749 -0.17667,0.11026 -0.52945,0.13233 -0.66181,0.28671 -0.15438,0.13231 -0.22042,0.35283 -0.22042,0.57339 0,0.19849 0.088,0.50724 0.22042,0.63954 0.11035,0.15438 0.33076,0.2426 0.46313,0.2426 0.15437,-0.0221 0.30875,-0.28671 0.4191,-0.28671 0.13236,-0.022 0.1984,0.17645 0.33076,0.2426 0.13236,0.0661 0.33076,0.13234 0.48514,0.13234 0.15438,0 0.30875,-0.0662 0.44111,-0.13234 0.11035,-0.0662 0.17639,-0.26464 0.28674,-0.26464 0.0883,-0.0221 0.17639,0.19849 0.28674,0.2426 0.13236,0.022 0.30875,0.022 0.4191,-0.0221 0.13208,-0.0661 0.24243,-0.17642 0.28645,-0.33079 0.0663,-0.13234 0.0883,-0.35287 0.0663,-0.52931 -0.022,-0.17642 -0.11034,-0.41902 -0.22069,-0.55132 -0.11007,-0.13234 -0.37479,-0.2426 -0.44083,-0.28671 z"
       style="fill:#f3a067;fill-opacity:1;fill-rule:evenodd;stroke:none" />
    <path
       inkscape:connector-curvature="0"
       id="path3472"
       d="m 193.74553,372.71677 c -0.0663,-0.0441 -0.28673,-0.30875 -0.4191,-0.28668 -0.15437,0.022 -0.22041,0.26464 -0.3968,0.3749 -0.17667,0.11026 -0.52945,0.13233 -0.66181,0.28671 -0.15438,0.13231 -0.22042,0.35283 -0.22042,0.57339 0,0.19849 0.088,0.50724 0.22042,0.63954 0.11035,0.15438 0.33076,0.2426 0.46313,0.2426 0.15437,-0.0221 0.30875,-0.28671 0.4191,-0.28671 0.13236,-0.022 0.1984,0.17645 0.33076,0.2426 0.13236,0.0661 0.33076,0.13234 0.48514,0.13234 0.15438,0 0.30875,-0.0662 0.44111,-0.13234 0.11035,-0.0662 0.17639,-0.26464 0.28674,-0.26464 0.0883,-0.0221 0.17639,0.19849 0.28674,0.2426 0.13236,0.022 0.30875,0.022 0.4191,-0.0221 0.13208,-0.0661 0.24243,-0.17642 0.28645,-0.33079 0.0663,-0.13234 0.0883,-0.35287 0.0663,-0.52931 -0.022,-0.17642 -0.11034,-0.41902 -0.22069,-0.55132 -0.11007,-0.13234 -0.37479,-0.2426 -0.44083,-0.28671"
       style="fill:none;stroke:#000000;stroke-width:0.70571697px;stroke-linecap:butt;stroke-linejoin:round;stroke-miterlimit:10;stroke-dasharray:none;stroke-opacity:1" />
    <path
       inkscape:connector-curvature="0"
       id="path3474"
       d="m 193.43678,369.54106 c 0,0.74981 -0.022,1.49965 -0.0663,1.9407 -0.044,0.44109 -0.11006,0.50724 -0.22041,0.72777 -0.11035,0.22056 -0.28674,0.4852 -0.4191,0.63957 -0.15438,0.15438 -0.35278,0.13231 -0.46313,0.28668 -0.11007,0.13234 -0.22041,0.37493 -0.22041,0.57342 0,0.19846 0.088,0.50721 0.22041,0.66159 0.11035,0.13233 0.33077,0.22055 0.46313,0.22055 0.15437,-0.0221 0.30875,-0.28671 0.4191,-0.28671 0.13236,0 0.1984,0.17645 0.33076,0.2426 0.13236,0.0661 0.33077,0.13231 0.48514,0.13231 0.15438,0 0.30875,-0.0661 0.44112,-0.13231 0.11034,-0.0661 0.17638,-0.26464 0.28673,-0.26464 0.0883,0 0.17639,0.19849 0.28674,0.24257 0.13236,0.0441 0.30875,0.0441 0.4191,-0.022 0.13208,-0.0662 0.24243,-0.17641 0.28646,-0.30875 0.0663,-0.15437 0.0883,-0.3749 0.0663,-0.55135 -0.022,-0.17642 -0.11035,-0.39694 -0.2207,-0.55132 -0.11007,-0.13233 -0.37479,-0.22056 -0.44083,-0.28671 z"
       style="fill:#f3a067;fill-opacity:1;fill-rule:evenodd;stroke:none" />
    <path
       inkscape:connector-curvature="0"
       id="path3476"
       d="m 193.43678,369.54106 c 0,0.74981 -0.022,1.49965 -0.0663,1.9407 -0.044,0.44109 -0.11006,0.50724 -0.22041,0.72777 -0.11035,0.22056 -0.28674,0.4852 -0.4191,0.63957 -0.15438,0.15438 -0.35278,0.13231 -0.46313,0.28668 -0.11007,0.13234 -0.22041,0.37493 -0.22041,0.57342 0,0.19846 0.088,0.50721 0.22041,0.66159 0.11035,0.13233 0.33077,0.22055 0.46313,0.22055 0.15437,-0.0221 0.30875,-0.28671 0.4191,-0.28671 0.13236,0 0.1984,0.17645 0.33076,0.2426 0.13236,0.0661 0.33077,0.13231 0.48514,0.13231 0.15438,0 0.30875,-0.0661 0.44112,-0.13231 0.11034,-0.0661 0.17638,-0.26464 0.28673,-0.26464 0.0883,0 0.17639,0.19849 0.28674,0.24257 0.13236,0.0441 0.30875,0.0441 0.4191,-0.022 0.13208,-0.0662 0.24243,-0.17641 0.28646,-0.30875 0.0663,-0.15437 0.0883,-0.3749 0.0663,-0.55135 -0.022,-0.17642 -0.11035,-0.39694 -0.2207,-0.55132 -0.11007,-0.13233 -0.37479,-0.22056 -0.44083,-0.28671"
       style="fill:none;stroke:#000000;stroke-width:0.46312675px;stroke-linecap:butt;stroke-linejoin:round;stroke-miterlimit:10;stroke-dasharray:none;stroke-opacity:1" />
    <path
       inkscape:connector-curvature="0"
       id="path3478"
       d="m 190.68004,377.41422 c 0.0883,-0.17645 1.56577,-0.4852 2.07292,-0.55135 0.48542,-0.0441 0.59549,0.1323 1.01459,0.1323 0.33076,0 0.4191,-0.17642 0.94826,-0.11026 0.52945,0.0662 2.07321,0.33082 2.22758,0.52931 0.15438,0.17641 -0.13236,0.6175 -0.63979,0.81596 -0.50716,0.19848 -1.6098,0.41904 -2.4257,0.39697 -0.81619,0 -1.91883,-0.26464 -2.448,-0.46313 -0.55146,-0.19848 -0.8382,-0.55135 -0.74986,-0.7498 z"
       style="fill:#ff3939;fill-opacity:1;fill-rule:evenodd;stroke:none" />
    <path
       inkscape:connector-curvature="0"
       id="path3480"
       d="m 190.68004,377.41422 c 0.0883,-0.17645 1.56577,-0.4852 2.07292,-0.55135 0.48542,-0.0441 0.59549,0.1323 1.01459,0.1323 0.33076,0 0.4191,-0.17642 0.94826,-0.11026 0.52945,0.0662 2.07321,0.33082 2.22758,0.52931 0.15438,0.17641 -0.13236,0.6175 -0.63979,0.81596 -0.50716,0.19848 -1.6098,0.41904 -2.4257,0.39697 -0.81619,0 -1.91883,-0.26464 -2.448,-0.46313 -0.55146,-0.19848 -0.8382,-0.55135 -0.74986,-0.7498"
       style="fill:none;stroke:#000000;stroke-width:0.46312675px;stroke-linecap:butt;stroke-linejoin:round;stroke-miterlimit:10;stroke-dasharray:none;stroke-opacity:1" />
    <path
       inkscape:connector-curvature="0"
       id="path3482"
       d="m 190.70205,377.50241 c 0.99258,0.15438 1.98487,0.30875 3.02147,0.30875 1.03632,0.0221 2.11695,-0.11026 3.17557,-0.26464 z"
       style="fill:#ff3939;fill-opacity:1;fill-rule:evenodd;stroke:none" />
    <path
       inkscape:connector-curvature="0"
       id="path3484"
       d="m 190.70205,377.50241 c 0.99258,0.15438 1.98487,0.30875 3.02147,0.30875 1.03632,0.0221 2.11695,-0.11026 3.17557,-0.26464"
       style="fill:none;stroke:#000000;stroke-width:0.46312675px;stroke-linecap:butt;stroke-linejoin:round;stroke-miterlimit:10;stroke-dasharray:none;stroke-opacity:1" />
    <path
       inkscape:connector-curvature="0"
       id="path3486"
       d="m 185.12252,366.45355 c -0.022,-0.13233 1.27903,-0.92625 2.02889,-1.235 0.72785,-0.28671 1.74216,-0.57342 2.448,-0.57342 0.72785,0.0221 1.6541,0.48519 1.8525,0.63957 0.19841,0.15437 -0.0883,0.2426 -0.63951,0.26464 -0.55146,0 -1.74216,-0.37491 -2.69071,-0.2426 -0.92625,0.15438 -2.35966,0.90421 -2.99917,1.14681 z"
       style="fill:#361809;fill-opacity:1;fill-rule:evenodd;stroke:none" />
    <path
       inkscape:connector-curvature="0"
       id="path3488"
       d="m 185.12252,366.45355 c -0.022,-0.13233 1.27903,-0.92625 2.02889,-1.235 0.72785,-0.28671 1.74216,-0.57342 2.448,-0.57342 0.72785,0.0221 1.6541,0.48519 1.8525,0.63957 0.19841,0.15437 -0.0883,0.2426 -0.63951,0.26464 -0.55146,0 -1.74216,-0.37491 -2.69071,-0.2426 -0.92625,0.15438 -2.35966,0.90421 -2.99917,1.14681"
       style="fill:none;stroke:#000000;stroke-width:0.35285848px;stroke-linecap:butt;stroke-linejoin:round;stroke-miterlimit:10;stroke-dasharray:none;stroke-opacity:1" />
    <path
       inkscape:connector-curvature="0"
       id="path3490"
       d="m 202.12584,366.71819 c 0.044,-0.13233 -1.21299,-1.03652 -1.94056,-1.38938 -0.72785,-0.35286 -1.72043,-0.70572 -2.44799,-0.74984 -0.72786,-0.0441 -1.69814,0.39698 -1.91883,0.52928 -0.19841,0.15438 0.0663,0.28671 0.63951,0.30875 0.55146,0.0441 1.78647,-0.28668 2.71272,-0.0661 0.94827,0.22053 2.33765,1.08063 2.95515,1.36734 z"
       style="fill:#361809;fill-opacity:1;fill-rule:evenodd;stroke:none" />
    <path
       inkscape:connector-curvature="0"
       id="path3492"
       d="m 202.12584,366.71819 c 0.044,-0.13233 -1.21299,-1.03652 -1.94056,-1.38938 -0.72785,-0.35286 -1.72043,-0.70572 -2.44799,-0.74984 -0.72786,-0.0441 -1.69814,0.39698 -1.91883,0.52928 -0.19841,0.15438 0.0663,0.28671 0.63951,0.30875 0.55146,0.0441 1.78647,-0.28668 2.71272,-0.0661 0.94827,0.22053 2.33765,1.08063 2.95515,1.36734"
       style="fill:none;stroke:#000000;stroke-width:0.35285848px;stroke-linecap:butt;stroke-linejoin:round;stroke-miterlimit:10;stroke-dasharray:none;stroke-opacity:1" />
    <path
       inkscape:connector-curvature="0"
       id="path3494"
       d="m 200.80278,369.07794 c 0.24243,-0.22056 0.35278,-0.44109 0.13208,-0.70573 -0.22041,-0.26464 -0.94826,-0.74984 -1.4334,-0.90421 -0.57348,-0.15438 -0.79389,-0.19849 -1.4114,-0.0661 -0.77187,0.13233 -2.11723,0.9924 -2.16125,1.36734 -0.044,0.3749 1.30104,0.74981 1.89653,0.88214 0.59549,0.15437 1.12494,0.11026 1.67612,0.022 0.57347,-0.0882 1.08063,-0.3749 1.30132,-0.59543 z"
       style="fill:#ffffff;fill-opacity:1;fill-rule:evenodd;stroke:none" />
    <path
       inkscape:connector-curvature="0"
       id="path3496"
       d="m 200.80278,369.07794 c 0.24243,-0.22056 0.35278,-0.44109 0.13208,-0.70573 -0.22041,-0.26464 -0.94826,-0.74984 -1.4334,-0.90421 -0.57348,-0.15438 -0.79389,-0.19849 -1.4114,-0.0661 -0.77187,0.13233 -2.11723,0.9924 -2.16125,1.36734 -0.044,0.3749 1.30104,0.74981 1.89653,0.88214 0.59549,0.15437 1.12494,0.11026 1.67612,0.022 0.57347,-0.0882 1.08063,-0.3749 1.30132,-0.59543"
       style="fill:none;stroke:#000000;stroke-width:0.35285848px;stroke-linecap:butt;stroke-linejoin:round;stroke-miterlimit:10;stroke-dasharray:none;stroke-opacity:1" />
    <path
       inkscape:connector-curvature="0"
       id="path3498"
       d="m 198.64153,367.49007 c -0.59549,0 -1.08063,0.50724 -1.08063,1.14678 0,0.63954 0.48514,1.14678 1.08063,1.14678 0.57319,0 1.05833,-0.50724 1.05833,-1.14678 0,-0.63954 -0.48514,-1.14678 -1.05833,-1.14678 z"
       style="fill:#833e18;fill-opacity:1;fill-rule:evenodd;stroke:none" />
    <path
       inkscape:connector-curvature="0"
       id="path3500"
       d="m 198.64153,367.49007 c -0.59549,0 -1.08063,0.50724 -1.08063,1.14678 0,0.63954 0.48514,1.14678 1.08063,1.14678 0.57319,0 1.05833,-0.50724 1.05833,-1.14678 0,-0.63954 -0.48514,-1.14678 -1.05833,-1.14678"
       style="fill:none;stroke:#000000;stroke-width:0.35285848px;stroke-linecap:butt;stroke-linejoin:round;stroke-miterlimit:10;stroke-dasharray:none;stroke-opacity:1" />
    <path
       inkscape:connector-curvature="0"
       id="path3502"
       d="m 198.61923,368.28399 c -0.17639,0 -0.33076,0.15437 -0.33076,0.35286 0,0.19849 0.15437,0.35286 0.33076,0.35286 0.17667,0 0.33105,-0.15437 0.33105,-0.35286 0,-0.19849 -0.15438,-0.35286 -0.33105,-0.35286 z"
       style="fill:#000000;fill-opacity:1;fill-rule:evenodd;stroke:none" />
    <path
       inkscape:connector-curvature="0"
       id="path3504"
       d="m 198.61923,368.28399 c -0.17639,0 -0.33076,0.15437 -0.33076,0.35286 0,0.19849 0.15437,0.35286 0.33076,0.35286 0.17667,0 0.33105,-0.15437 0.33105,-0.35286 0,-0.19849 -0.15438,-0.35286 -0.33105,-0.35286"
       style="fill:none;stroke:#000000;stroke-width:0.35285848px;stroke-linecap:butt;stroke-linejoin:round;stroke-miterlimit:10;stroke-dasharray:none;stroke-opacity:1" />
    <path
       inkscape:connector-curvature="0"
       id="path3506"
       d="m 200.31736,367.68856 c -0.28645,-0.2426 -0.68354,-0.41905 -1.01431,-0.52931 -0.33076,-0.0882 -0.6175,-0.15438 -0.97028,-0.11027 -0.35306,0.0441 -0.79417,0.19849 -1.14695,0.37491 -0.37479,0.17644 -0.8159,0.48519 -1.0143,0.68368 -0.2207,0.22053 -0.48543,0.57339 -0.19869,0.57339 0.28674,-0.0221 1.34536,-0.55135 1.87452,-0.66161 0.55146,-0.11027 0.8382,-0.0882 1.36737,0 0.52945,0.0882 1.63209,0.63954 1.80848,0.59546 0.17639,-0.0662 -0.4191,-0.70573 -0.70584,-0.92625 z"
       style="fill:#f5b183;fill-opacity:1;fill-rule:evenodd;stroke:none" />
    <path
       inkscape:connector-curvature="0"
       id="path3508"
       d="m 200.31736,367.68856 c -0.28645,-0.2426 -0.68354,-0.41905 -1.01431,-0.52931 -0.33076,-0.0882 -0.6175,-0.15438 -0.97028,-0.11027 -0.35306,0.0441 -0.79417,0.19849 -1.14695,0.37491 -0.37479,0.17644 -0.8159,0.48519 -1.0143,0.68368 -0.2207,0.22053 -0.48543,0.57339 -0.19869,0.57339 0.28674,-0.0221 1.34536,-0.55135 1.87452,-0.66161 0.55146,-0.11027 0.8382,-0.0882 1.36737,0 0.52945,0.0882 1.63209,0.63954 1.80848,0.59546 0.17639,-0.0662 -0.4191,-0.70573 -0.70584,-0.92625"
       style="fill:none;stroke:#000000;stroke-width:0.35285848px;stroke-linecap:butt;stroke-linejoin:round;stroke-miterlimit:10;stroke-dasharray:none;stroke-opacity:1" />
    <path
       inkscape:connector-curvature="0"
       id="path3510"
       d="m 196.19353,368.54863 c -0.0663,0.0441 -0.39709,0.22055 -0.35306,0.2426 0.0223,0 0.4191,-0.11027 0.59549,-0.15438 0.17639,-0.0441 0.11035,-0.022 0.4191,-0.13233 0.28674,-0.0882 0.99229,-0.39695 1.36737,-0.46313 0.3968,-0.0882 0.63951,-0.0441 0.94826,0.0221 0.33077,0.0661 0.63952,0.22053 0.9923,0.33079 0.33104,0.13234 0.81618,0.41902 1.05861,0.44109 0.2207,0 0.30875,-0.30875 0.30875,-0.35287 0,-0.0441 -0.066,0.11027 -0.30875,0.0662 -0.24243,-0.0441 -0.74986,-0.26464 -1.10264,-0.39694 -0.35278,-0.13234 -0.68354,-0.33082 -1.01431,-0.39697 -0.35306,-0.0661 -0.74986,-0.0441 -1.0366,-0.0221 -0.28674,0.0441 -0.39709,0.11029 -0.63952,0.19848 -0.24271,0.0882 -0.63951,0.28671 -0.81618,0.35286 0,0 -0.41882,0.26464 -0.41882,0.26464 z"
       style="fill:#000000;fill-opacity:1;fill-rule:evenodd;stroke:none" />
    <path
       inkscape:connector-curvature="0"
       id="path3512"
       d="m 196.19353,368.54863 c -0.0663,0.0441 -0.39709,0.22055 -0.35306,0.2426 0.0223,0 0.4191,-0.11027 0.59549,-0.15438 0.17639,-0.0441 0.11035,-0.022 0.4191,-0.13233 0.28674,-0.0882 0.99229,-0.39695 1.36737,-0.46313 0.3968,-0.0882 0.63951,-0.0441 0.94826,0.0221 0.33077,0.0661 0.63952,0.22053 0.9923,0.33079 0.33104,0.13234 0.81618,0.41902 1.05861,0.44109 0.2207,0 0.30875,-0.30875 0.30875,-0.35287 0,-0.0441 -0.066,0.11027 -0.30875,0.0662 -0.24243,-0.0441 -0.74986,-0.26464 -1.10264,-0.39694 -0.35278,-0.13234 -0.68354,-0.33082 -1.01431,-0.39697 -0.35306,-0.0661 -0.74986,-0.0441 -1.0366,-0.0221 -0.28674,0.0441 -0.39709,0.11029 -0.63952,0.19848 -0.24271,0.0882 -0.63951,0.28671 -0.81618,0.35286 0,0 -0.41882,0.26464 -0.41882,0.26464"
       style="fill:none;stroke:#000000;stroke-width:0.35285848px;stroke-linecap:butt;stroke-linejoin:round;stroke-miterlimit:10;stroke-dasharray:none;stroke-opacity:1" />
    <path
       inkscape:connector-curvature="0"
       id="path3514"
       d="m 186.60023,369.1882 c -0.26472,-0.17645 -0.37507,-0.35286 -0.13236,-0.6175 0.24243,-0.26464 1.08063,-0.83806 1.56577,-1.01448 0.59549,-0.15437 0.79389,-0.17642 1.38938,-0.0661 0.77188,0.13231 2.09493,0.97037 2.11723,1.30116 0.044,0.3749 -1.2573,0.72777 -1.85251,0.88214 -0.57347,0.13233 -1.10292,0.0882 -1.6541,0 -0.52945,-0.0882 -1.19098,-0.30875 -1.43341,-0.48517 z"
       style="fill:#ffffff;fill-opacity:1;fill-rule:evenodd;stroke:none" />
    <path
       inkscape:connector-curvature="0"
       id="path3516"
       d="m 186.60023,369.1882 c -0.26472,-0.17645 -0.37507,-0.35286 -0.13236,-0.6175 0.24243,-0.26464 1.08063,-0.83806 1.56577,-1.01448 0.59549,-0.15437 0.79389,-0.17642 1.38938,-0.0661 0.77188,0.13231 2.09493,0.97037 2.11723,1.30116 0.044,0.3749 -1.2573,0.72777 -1.85251,0.88214 -0.57347,0.13233 -1.10292,0.0882 -1.6541,0 -0.52945,-0.0882 -1.19098,-0.30875 -1.43341,-0.48517"
       style="fill:none;stroke:#000000;stroke-width:0.35285848px;stroke-linecap:butt;stroke-linejoin:round;stroke-miterlimit:10;stroke-dasharray:none;stroke-opacity:1" />
    <path
       inkscape:connector-curvature="0"
       id="path3518"
       d="m 188.82753,367.53418 c -0.6175,0 -1.12466,0.50721 -1.12466,1.10267 0,0.6175 0.50716,1.10267 1.12466,1.10267 0.6175,0 1.12466,-0.48517 1.12466,-1.10267 0,-0.59546 -0.50716,-1.10267 -1.12466,-1.10267 z"
       style="fill:#833e18;fill-opacity:1;fill-rule:evenodd;stroke:none" />
    <path
       inkscape:connector-curvature="0"
       id="path3520"
       d="m 188.82753,367.53418 c -0.6175,0 -1.12466,0.50721 -1.12466,1.10267 0,0.6175 0.50716,1.10267 1.12466,1.10267 0.6175,0 1.12466,-0.48517 1.12466,-1.10267 0,-0.59546 -0.50716,-1.10267 -1.12466,-1.10267"
       style="fill:none;stroke:#000000;stroke-width:0.35285848px;stroke-linecap:butt;stroke-linejoin:round;stroke-miterlimit:10;stroke-dasharray:none;stroke-opacity:1" />
    <path
       inkscape:connector-curvature="0"
       id="path3522"
       d="m 188.82753,368.30606 c -0.1984,0 -0.35278,0.15437 -0.35278,0.33079 0,0.19849 0.15438,0.35286 0.35278,0.35286 0.17639,0 0.33076,-0.15437 0.33076,-0.35286 0,-0.17642 -0.15437,-0.33079 -0.33076,-0.33079 z"
       style="fill:#000000;fill-opacity:1;fill-rule:evenodd;stroke:none" />
    <path
       inkscape:connector-curvature="0"
       id="path3524"
       d="m 188.82753,368.30606 c -0.1984,0 -0.35278,0.15437 -0.35278,0.33079 0,0.19849 0.15438,0.35286 0.35278,0.35286 0.17639,0 0.33076,-0.15437 0.33076,-0.35286 0,-0.17642 -0.15437,-0.33079 -0.33076,-0.33079"
       style="fill:none;stroke:#000000;stroke-width:0.35285848px;stroke-linecap:butt;stroke-linejoin:round;stroke-miterlimit:10;stroke-dasharray:none;stroke-opacity:1" />
    <path
       inkscape:connector-curvature="0"
       id="path3526"
       d="m 187.28377,367.51211 c 0.48514,-0.28668 1.19098,-0.48517 1.72015,-0.48517 0.55146,-0.0221 1.10264,0.26464 1.47771,0.44106 0.3748,0.19849 0.61751,0.48519 0.7939,0.68368 0.17638,0.22053 0.55118,0.55132 0.24242,0.52928 -0.28645,-0.0221 -1.4334,-0.50724 -2.00688,-0.59546 -0.57319,-0.11026 -0.88194,-0.13231 -1.4334,-0.022 -0.55118,0.11026 -1.74216,0.74981 -1.87452,0.63954 -0.13237,-0.0882 0.57347,-0.90418 1.08062,-1.19089 z"
       style="fill:#f5b183;fill-opacity:1;fill-rule:evenodd;stroke:none" />
    <path
       inkscape:connector-curvature="0"
       id="path3528"
       d="m 187.28377,367.51211 c 0.48514,-0.28668 1.19098,-0.48517 1.72015,-0.48517 0.55146,-0.0221 1.10264,0.26464 1.47771,0.44106 0.3748,0.19849 0.61751,0.48519 0.7939,0.68368 0.17638,0.22053 0.55118,0.55132 0.24242,0.52928 -0.28645,-0.0221 -1.4334,-0.50724 -2.00688,-0.59546 -0.57319,-0.11026 -0.88194,-0.13231 -1.4334,-0.022 -0.55118,0.11026 -1.74216,0.74981 -1.87452,0.63954 -0.13237,-0.0882 0.57347,-0.90418 1.08062,-1.19089"
       style="fill:none;stroke:#000000;stroke-width:0.35285848px;stroke-linecap:butt;stroke-linejoin:round;stroke-miterlimit:10;stroke-dasharray:none;stroke-opacity:1" />
    <path
       inkscape:connector-curvature="0"
       id="path3530"
       d="m 191.12115,368.41632 c 0.066,0.022 0.3968,0.17642 0.35278,0.19849 -0.022,0.022 -0.4191,-0.0882 -0.59549,-0.13234 -0.15438,-0.0441 -0.11007,-0.022 -0.39681,-0.11026 -0.30875,-0.0882 -0.99257,-0.35286 -1.38938,-0.41902 -0.37507,-0.0662 -0.6175,-0.0221 -0.92625,0.022 -0.33076,0.0661 -0.63951,0.19849 -0.99257,0.30876 -0.33077,0.11026 -0.81591,0.35286 -1.05862,0.3749 -0.22042,0 -0.30875,-0.26464 -0.30875,-0.30875 0,-0.0441 0.0883,0.11029 0.30875,0.0662 0.24271,-0.0662 0.74986,-0.2426 1.10292,-0.35286 0.35278,-0.11027 0.66153,-0.30875 1.01431,-0.37491 0.33077,-0.0441 0.74987,-0.0221 1.01459,0 0.28674,0.022 0.3968,0.0882 0.63952,0.15438 0.24242,0.0882 0.66152,0.26464 0.8159,0.33079 0,0 0.4191,0.2426 0.4191,0.2426 z"
       style="fill:#000000;fill-opacity:1;fill-rule:evenodd;stroke:none" />
    <path
       inkscape:connector-curvature="0"
       id="path3532"
       d="m 191.12115,368.41632 c 0.066,0.022 0.3968,0.17642 0.35278,0.19849 -0.022,0.022 -0.4191,-0.0882 -0.59549,-0.13234 -0.15438,-0.0441 -0.11007,-0.022 -0.39681,-0.11026 -0.30875,-0.0882 -0.99257,-0.35286 -1.38938,-0.41902 -0.37507,-0.0662 -0.6175,-0.0221 -0.92625,0.022 -0.33076,0.0661 -0.63951,0.19849 -0.99257,0.30876 -0.33077,0.11026 -0.81591,0.35286 -1.05862,0.3749 -0.22042,0 -0.30875,-0.26464 -0.30875,-0.30875 0,-0.0441 0.0883,0.11029 0.30875,0.0662 0.24271,-0.0662 0.74986,-0.2426 1.10292,-0.35286 0.35278,-0.11027 0.66153,-0.30875 1.01431,-0.37491 0.33077,-0.0441 0.74987,-0.0221 1.01459,0 0.28674,0.022 0.3968,0.0882 0.63952,0.15438 0.24242,0.0882 0.66152,0.26464 0.8159,0.33079 0,0 0.4191,0.2426 0.4191,0.2426"
       style="fill:none;stroke:#000000;stroke-width:0.35285848px;stroke-linecap:butt;stroke-linejoin:round;stroke-miterlimit:10;stroke-dasharray:none;stroke-opacity:1" />
    <path
       inkscape:connector-curvature="0"
       id="path3534"
       d="m 180.75597,378.51689 c -0.17638,1.2129 -1.4557,1.38929 -1.67611,1.76436 -0.24271,0.39681 -0.30875,0.39681 0.33076,0.55118 0.66153,0.13237 2.47001,0.35306 3.57265,0.26473 1.10264,-0.0883 2.71272,0.066 3.0655,-0.81591 0.33076,-0.88222 -0.52917,-2.8891 -1.01459,-4.49901 -0.46313,-1.60991 -1.56577,-3.41834 -1.8082,-5.20466 -0.24271,-1.78635 -0.70583,-3.9035 0.33077,-5.51341 1.0366,-1.60994 4.0798,-3.5286 5.86627,-4.16817 1.78618,-0.63954 2.62438,-0.0661 4.85168,0.35286 2.20557,0.41905 6.79253,0.59547 8.46864,2.18333 1.67612,1.60991 1.4114,5.20466 1.61008,7.36592 0.22042,2.16126 0.066,4.16814 -0.35306,5.62367 -0.41882,1.4776 -2.2273,2.53613 -2.16126,3.17565 0.81619,0.81619 1.58807,1.10264 2.51432,0.68382 0.94827,-0.4191 2.44771,-1.38946 3.13154,-3.15374 0.66153,-1.74225 1.0366,-4.49894 0.90424,-7.32181 -0.13236,-2.82287 -0.39709,-6.90279 -1.69813,-9.59335 -1.32334,-2.69054 -4.08009,-5.13851 -6.15301,-6.54993 -2.05091,-1.43349 -3.90342,-2.02894 -6.26336,-1.98483 -2.35966,0.0662 -5.93231,1.10268 -7.93919,2.29358 -1.98487,1.21294 -3.04349,2.86699 -4.03578,4.89591 -0.99258,2.00688 -1.54376,4.80771 -1.91883,7.16743 -0.37479,2.38181 -0.35278,4.96208 -0.28674,7.03512 0.0663,2.07303 0.8382,4.25636 0.66181,5.44726 z"
       style="fill:#361809;fill-opacity:1;fill-rule:evenodd;stroke:none" />
    <path
       inkscape:connector-curvature="0"
       id="path3536"
       d="m 180.75597,378.51689 c -0.17638,1.2129 -1.4557,1.38929 -1.67611,1.76436 -0.24271,0.39681 -0.30875,0.39681 0.33076,0.55118 0.66153,0.13237 2.47001,0.35306 3.57265,0.26473 1.10264,-0.0883 2.71272,0.066 3.0655,-0.81591 0.33076,-0.88222 -0.52917,-2.8891 -1.01459,-4.49901 -0.46313,-1.60991 -1.56577,-3.41834 -1.8082,-5.20466 -0.24271,-1.78635 -0.70583,-3.9035 0.33077,-5.51341 1.0366,-1.60994 4.0798,-3.5286 5.86627,-4.16817 1.78618,-0.63954 2.62438,-0.0661 4.85168,0.35286 2.20557,0.41905 6.79253,0.59547 8.46864,2.18333 1.67612,1.60991 1.4114,5.20466 1.61008,7.36592 0.22042,2.16126 0.066,4.16814 -0.35306,5.62367 -0.41882,1.4776 -2.2273,2.53613 -2.16126,3.17565 0.81619,0.81619 1.58807,1.10264 2.51432,0.68382 0.94827,-0.4191 2.44771,-1.38946 3.13154,-3.15374 0.66153,-1.74225 1.0366,-4.49894 0.90424,-7.32181 -0.13236,-2.82287 -0.39709,-6.90279 -1.69813,-9.59335 -1.32334,-2.69054 -4.08009,-5.13851 -6.15301,-6.54993 -2.05091,-1.43349 -3.90342,-2.02894 -6.26336,-1.98483 -2.35966,0.0662 -5.93231,1.10268 -7.93919,2.29358 -1.98487,1.21294 -3.04349,2.86699 -4.03578,4.89591 -0.99258,2.00688 -1.54376,4.80771 -1.91883,7.16743 -0.37479,2.38181 -0.35278,4.96208 -0.28674,7.03512 0.0663,2.07303 0.8382,4.25636 0.66181,5.44726"
       style="fill:none;stroke:#000000;stroke-width:0.94830716px;stroke-linecap:butt;stroke-linejoin:round;stroke-miterlimit:10;stroke-dasharray:none;stroke-opacity:1" />
    <path
       inkscape:connector-curvature="0"
       id="path3538"
       d="m 181.96897,394.88061 c -1.49973,3.85939 -1.30133,18.52507 2.18327,22.2964 3.48431,3.77106 15.23887,4.01377 18.70145,0.30875 3.4623,-3.72702 3.70502,-18.70145 2.11723,-22.60515 -1.61007,-3.8814 -7.91746,-0.77188 -11.73254,-0.77188 -3.83737,0 -9.74795,-3.0655 -11.26941,0.77188 z"
       style="fill:#808080;fill-opacity:1;fill-rule:evenodd;stroke:none" />
    <path
       inkscape:connector-curvature="0"
       id="path3540"
       d="m 181.96897,394.88061 c -1.49973,3.85939 -1.30133,18.52507 2.18327,22.2964 3.48431,3.77106 15.23887,4.01377 18.70145,0.30875 3.4623,-3.72702 3.70502,-18.70145 2.11723,-22.60515 -1.61007,-3.8814 -7.91746,-0.77188 -11.73254,-0.77188 -3.83737,0 -9.74795,-3.0655 -11.26941,0.77188"
       style="fill:none;stroke:#000000;stroke-width:0.94830716px;stroke-linecap:butt;stroke-linejoin:round;stroke-miterlimit:10;stroke-dasharray:none;stroke-opacity:1" />
    <path
       inkscape:connector-curvature="0"
       id="path3542"
       d="m 209.91094,390.97719 -15.70228,2.73474 -16.07707,-2.73474 -5.42516,8.71108 18.59111,12.7031 22.86959,-10.54185 -4.25619,-10.87233 z"
       style="fill:#3333cc;fill-opacity:1;fill-rule:evenodd;stroke:none" />
    <path
       inkscape:connector-curvature="0"
       id="path3544"
       d="m 209.91094,390.97719 -15.70228,2.73474 -16.07707,-2.73474 -5.42516,8.71108 18.59111,12.7031 22.86959,-10.54185 -4.25619,-10.87233 z"
       style="fill:none;stroke:#000000;stroke-width:0.94830716px;stroke-linecap:butt;stroke-linejoin:round;stroke-miterlimit:10;stroke-dasharray:none;stroke-opacity:1" />
    <path
       inkscape:connector-curvature="0"
       id="path3546"
       d="m 238.07333,377.78912 c -1.36736,1.41151 -0.72785,4.23429 1.4114,6.32951 2.16126,2.09494 5.00634,2.6464 6.3737,1.235 1.36709,-1.38938 0.74959,-4.23446 -1.41167,-6.32939 -2.13925,-2.09522 -4.98405,-2.64657 -6.37343,-1.23512 z"
       style="fill:#f5f5f5;fill-opacity:1;fill-rule:evenodd;stroke:none" />
    <path
       inkscape:connector-curvature="0"
       id="path3548"
       d="m 238.07333,377.78912 c -1.36736,1.41151 -0.72785,4.23429 1.4114,6.32951 2.16126,2.09494 5.00634,2.6464 6.3737,1.235 1.36709,-1.38938 0.74959,-4.23446 -1.41167,-6.32939 -2.13925,-2.09522 -4.98405,-2.64657 -6.37343,-1.23512"
       style="fill:none;stroke:#000000;stroke-width:0.94830716px;stroke-linecap:butt;stroke-linejoin:round;stroke-miterlimit:10;stroke-dasharray:none;stroke-opacity:1" />
    <path
       inkscape:connector-curvature="0"
       id="path3550"
       d="m 244.42475,387.60295 c -0.50716,0 -2.13925,0.33076 -2.99918,0.022 -0.88223,-0.30876 -1.67612,-1.05862 -2.22758,-1.87452 -0.55118,-0.81591 -1.30105,-1.45542 -1.05862,-3.02119 0.24271,-1.56605 1.89682,-4.85191 2.53634,-6.35158 0.66152,-1.49965 1.16868,-1.76429 1.38938,-2.66847 0.22041,-0.90421 -0.13237,-2.05099 -0.11035,-2.73468 0.044,-0.68365 0.0883,-0.6175 0.26472,-1.36731 0.17639,-0.77188 0.50715,-2.11714 0.83792,-3.15366 0.30875,-1.05859 0.72785,-2.71261 1.10292,-3.13162 0.39681,-0.44109 1.05834,-0.44109 1.16869,0.52927 0.11034,0.99241 -1.213,5.7119 -0.48514,5.38111 0.74986,-0.33082 3.92542,-6.17502 4.94001,-7.38799 1.01459,-1.19089 1.32334,-0.81599 1.12466,0.19849 -0.17639,1.01448 -2.62439,5.99858 -2.24931,5.88831 0.37479,-0.11026 3.57265,-5.51341 4.4989,-6.50581 0.92626,-0.99244 1.43341,-0.6175 1.0366,0.59543 -0.37507,1.19092 -3.57293,6.35147 -3.37424,6.68226 0.22041,0.30875 3.74904,-4.10196 4.6973,-4.78564 0.94827,-0.68366 1.34536,-0.0441 0.99258,0.66161 -0.33105,0.70573 -2.31564,2.58027 -3.0655,3.57271 -0.74986,0.97034 -1.34535,2.05096 -1.43369,2.31563 -0.088,0.26464 0.52945,-0.48519 0.86021,-0.72779 0.30876,-0.22053 0.59549,-0.39695 1.05862,-0.7057 0.48514,-0.30875 1.36737,-1.08063 1.78618,-1.12474 0.39709,-0.0661 1.23501,0.11026 0.6398,0.77188 -0.59549,0.63954 -2.95543,2.13919 -4.19043,3.13162 -1.23501,1.01445 -2.49203,2.07304 -3.24189,2.88903 -0.74958,0.81598 -0.48514,-0.13234 -1.25702,2.00688 -0.74986,2.13919 -2.62438,8.55681 -3.32994,10.82841 z"
       style="fill:#f3a067;fill-opacity:1;fill-rule:evenodd;stroke:none" />
    <path
       transform="matrix(0.28222222,0,0,0.28222222,139.58173,350.68517)"
       inkscape:connector-curvature="0"
       id="path3552"
       d="m 371.491,130.811 c -1.797,0 -7.58,1.172 -10.627,0.078 -3.126,-1.094 -5.939,-3.751 -7.893,-6.642 -1.953,-2.891 -4.61,-5.157 -3.751,-10.705 0.86,-5.549 6.721,-17.1918 8.987,-22.5056 2.344,-5.3137 4.141,-6.2514 4.923,-9.4552 0.781,-3.2039 -0.469,-7.2673 -0.391,-9.6898 0.156,-2.4224 0.313,-2.188 0.938,-4.8448 0.625,-2.735 1.797,-7.5017 2.969,-11.1744 1.094,-3.7509 2.579,-9.6116 3.908,-11.0963 1.406,-1.5629 3.75,-1.5629 4.141,1.8754 0.391,3.5164 -4.298,20.239 -1.719,19.0669 2.657,-1.1722 13.909,-21.88 17.504,-26.1779 3.595,-4.2197 4.689,-2.8913 3.985,0.7033 -0.625,3.5946 -9.299,21.2548 -7.97,20.8641 1.328,-0.3907 12.659,-19.5357 15.941,-23.0521 3.282,-3.5165 5.079,-2.188 3.673,2.1098 -1.329,4.2198 -12.66,22.5052 -11.956,23.6773 0.781,1.094 13.284,-14.5345 16.644,-16.957 3.36,-2.4224 4.767,-0.1563 3.517,2.3443 -1.173,2.5006 -8.205,9.1427 -10.862,12.6592 -2.657,3.4382 -4.767,7.2672 -5.08,8.205 -0.312,0.9377 1.876,-1.7192 3.048,-2.5788 1.094,-0.7814 2.11,-1.4065 3.751,-2.5005 1.719,-1.094 4.845,-3.829 6.329,-3.9853 1.407,-0.2344 4.376,0.3907 2.267,2.735 -2.11,2.2661 -10.472,7.5798 -14.848,11.0963 -4.376,3.5945 -8.83,7.3454 -11.487,10.2367 -2.656,2.8913 -1.719,-0.4689 -4.454,7.111 -2.657,7.5798 -9.299,30.3194 -11.799,38.3684"
       clip-path="url(#clipEmfPath1)"
       style="fill:none;stroke:#000000;stroke-width:3.36014342px;stroke-linecap:butt;stroke-linejoin:round;stroke-miterlimit:10;stroke-dasharray:none;stroke-opacity:1" />
    <path
       inkscape:connector-curvature="0"
       id="path3554"
       d="m 158.79045,388.5292 c -1.65402,-1.32306 -4.87384,-0.066 -7.18947,2.80077 -2.29359,2.88911 -2.80083,6.30739 -1.14681,7.63073 1.67609,1.32305 4.89593,0.066 7.1895,-2.80078 2.29359,-2.88911 2.82287,-6.30738 1.14678,-7.63072 z"
       style="fill:#f5f5f5;fill-opacity:1;fill-rule:evenodd;stroke:none" />
    <path
       inkscape:connector-curvature="0"
       id="path3556"
       d="m 158.79045,388.5292 c -1.65402,-1.32306 -4.87384,-0.066 -7.18947,2.80077 -2.29359,2.88911 -2.80083,6.30739 -1.14681,7.63073 1.67609,1.32305 4.89593,0.066 7.1895,-2.80078 2.29359,-2.88911 2.82287,-6.30738 1.14678,-7.63072"
       style="fill:none;stroke:#000000;stroke-width:0.94830716px;stroke-linecap:butt;stroke-linejoin:round;stroke-miterlimit:10;stroke-dasharray:none;stroke-opacity:1" />
    <path
       inkscape:connector-curvature="0"
       id="path3558"
       d="m 154.26948,400.52647 c -0.68369,-1.23501 -3.17574,-5.66787 -4.05788,-7.43204 -0.88217,-1.76446 -0.52931,-1.54376 -1.25707,-3.13182 -0.70573,-1.56577 -2.07304,-3.96946 -2.99929,-6.35142 -0.92626,-2.38167 -2.29359,-6.59395 -2.53616,-7.91718 -0.26467,-1.34526 0.41901,-0.77187 0.9924,-0.0441 0.57339,0.74984 2.38179,5.07247 2.44794,4.47698 0.0662,-0.59549 -1.89659,-6.68234 -2.00688,-8.02761 -0.11027,-1.34527 0.77188,-1.03652 1.30118,-0.0661 0.52928,0.9924 1.78633,6.37351 1.85251,6.02064 0.0662,-0.3749 -1.41145,-6.77048 -1.43349,-8.15986 -0.0221,-1.41142 0.74981,-1.63195 1.32323,-0.26464 0.57339,1.34527 1.76428,8.20398 2.13918,8.40246 0.37494,0.19846 -0.15437,-5.91038 0.11027,-7.1895 0.26467,-1.25707 1.19092,-1.54375 1.45556,-0.41901 0.26464,1.12474 0.0882,5.60163 0.17642,7.16743 0.0882,1.54367 0.15437,1.47763 0.30875,2.13916 0.13233,0.66153 0.3749,2.20528 0.57339,1.83049 0.19849,-0.35278 0.46313,-3.19777 0.63957,-4.03581 0.17642,-0.81598 0.19849,-0.92625 0.39695,-0.94832 0.19848,-0.0441 0.72779,-0.1323 0.83805,0.72777 0.0882,0.8601 -0.26463,3.06538 -0.26463,4.47678 0,1.38938 0.0662,2.84508 0.24257,3.90369 0.15437,1.08063 0,1.01431 0.79394,2.51404 0.77188,1.49973 3.08751,5.16043 3.9035,6.50579 z"
       style="fill:#f3a067;fill-opacity:1;fill-rule:evenodd;stroke:none" />
    <path
       transform="matrix(0.28222222,0,0,0.28222222,139.58173,350.68517)"
       inkscape:connector-curvature="0"
       id="path3560"
       d="m 52.0432,176.603 c -2.4225,-4.376 -11.2526,-20.083 -14.3783,-26.334 -3.1258,-6.252 -1.8755,-5.47 -4.4542,-11.097 -2.5006,-5.548 -7.3454,-14.065 -10.6274,-22.505 -3.282,-8.439 -8.1269,-23.3644 -8.9864,-28.053 -0.9378,-4.7667 1.4847,-2.735 3.5164,-0.1563 2.0317,2.6569 8.4394,17.9733 8.6738,15.8633 0.2345,-2.11 -6.7202,-23.6776 -7.111,-28.4443 -0.3907,-4.7667 2.735,-3.6727 4.6105,-0.2344 1.8754,3.5164 6.3295,22.5833 6.564,21.333 0.2344,-1.3284 -5.0012,-23.9899 -5.0793,-28.9129 -0.0782,-5.0011 2.6568,-5.7825 4.6886,-0.9377 2.0317,4.7667 6.2514,29.0692 7.5798,29.7725 1.3285,0.7032 -0.547,-20.9423 0.3907,-25.4746 0.9378,-4.4542 4.2198,-5.47 5.1575,-1.4847 0.9377,3.9853 0.3125,19.8483 0.6251,25.3964 0.3126,5.4697 0.547,5.2357 1.094,7.5797 0.4689,2.344 1.3284,7.814 2.0317,6.486 0.7033,-1.25 1.641,-11.3307 2.2662,-14.3001 0.6251,-2.8913 0.7033,-3.282 1.4065,-3.3602 0.7033,-0.1563 2.5788,-0.4688 2.9695,2.5787 0.3125,3.0476 -0.9377,10.8616 -0.9377,15.8626 0,4.923 0.2344,10.081 0.8595,13.832 0.547,3.829 0,3.594 2.8132,8.908 2.735,5.314 10.94,18.285 13.8313,23.052"
       clip-path="url(#clipEmfPath1)"
       style="fill:none;stroke:#000000;stroke-width:3.36014342px;stroke-linecap:butt;stroke-linejoin:round;stroke-miterlimit:10;stroke-dasharray:none;stroke-opacity:1" />
    <path
       inkscape:connector-curvature="0"
       id="path3562"
       d="m 177.7345,405.55454 -2.95515,6.13099 -3.63897,3.50661 -4.05773,1.96286 -4.3887,-2.49231 -6.17502,-6.77022 -6.02065,-9.10816 1.45556,1.235 1.96277,0 1.9407,-1.235 1.47761,-2.51432 1.30115,-2.8448 0.30875,-3.92571 4.89594,9.99038 2.75669,4.27849 1.63209,-1.05861 2.09494,-3.57265 2.05091,-5.97662 2.24959,-4.16814 1.76417,-2.20529 2.35994,-1.67612 5.55752,-0.6175 0,4.58724 5.88829,9.57129 4.32251,3.57265 4.76363,-4.05779 4.52092,-7.74108 0.88223,-5.55752 4.58695,1.23501 3.55064,2.18355 3.9037,4.0798 5.18245,6.85857 3.08751,-0.52917 3.74932,-6.06467 4.05779,-6.79253 4.71932,-7.4983 1.12494,3.57259 2.448,2.49203 1.78618,1.2573 2.27161,0.35277 -12.98957,19.45132 -3.59494,4.47689 -3.90342,1.43341 -5.68988,-1.96285 -5.35884,-5.18245 1.01431,21.12744 -38.57187,5.02807 1.67611,-24.83245 z"
       style="fill:#fbfbfb;fill-opacity:1;fill-rule:evenodd;stroke:none" />
    <path
       inkscape:connector-curvature="0"
       id="path3564"
       d="m 177.7345,405.55454 -2.95515,6.13099 -3.63897,3.50661 -4.05773,1.96286 -4.3887,-2.49231 -6.17502,-6.77022 -6.02065,-9.10816 1.45556,1.235 1.96277,0 1.9407,-1.235 1.47761,-2.51432 1.30115,-2.8448 0.30875,-3.92571 4.89594,9.99038 2.75669,4.27849 1.63209,-1.05861 2.09494,-3.57265 2.05091,-5.97662 2.24959,-4.16814 1.76417,-2.20529 2.35994,-1.67612 5.55752,-0.6175 0,4.58724 5.88829,9.57129 4.32251,3.57265 4.76363,-4.05779 4.52092,-7.74108 0.88223,-5.55752 4.58695,1.23501 3.55064,2.18355 3.9037,4.0798 5.18245,6.85857 3.08751,-0.52917 3.74932,-6.06467 4.05779,-6.79253 4.71932,-7.4983 1.12494,3.57259 2.448,2.49203 1.78618,1.2573 2.27161,0.35277 -12.98957,19.45132 -3.59494,4.47689 -3.90342,1.43341 -5.68988,-1.96285 -5.35884,-5.18245 1.01431,21.12744 -38.57187,5.02807 1.67611,-24.83245 z"
       style="fill:none;stroke:#000000;stroke-width:0.94830716px;stroke-linecap:butt;stroke-linejoin:round;stroke-miterlimit:10;stroke-dasharray:none;stroke-opacity:1" />
    <path
       inkscape:connector-curvature="0"
       id="path3566"
       d="m 162.78217,433.93763 0,50.54712 3.37422,0 0,-50.54712 -3.37422,0 z"
       style="fill:#a6a6a6;fill-opacity:1;fill-rule:evenodd;stroke:none" />
    <path
       inkscape:connector-curvature="0"
       id="path3568"
       d="m 162.78217,433.93763 0,50.54712 3.37422,0 0,-50.54712 z"
       style="fill:none;stroke:#000000;stroke-width:0.94830716px;stroke-linecap:butt;stroke-linejoin:miter;stroke-miterlimit:8;stroke-dasharray:none;stroke-opacity:1" />
    <path
       inkscape:connector-curvature="0"
       id="path3570"
       d="m 166.13432,487.96907 -0.8601,-2.60209 -1.72017,0 -0.83803,2.60209 z"
       style="fill:#a6a6a6;fill-opacity:1;fill-rule:evenodd;stroke:none" />
    <path
       inkscape:connector-curvature="0"
       id="path3572"
       d="m 166.13432,487.96907 -0.8601,-2.60209 -1.72017,0 -0.83803,2.60209 z"
       style="fill:none;stroke:#000000;stroke-width:0.94830716px;stroke-linecap:butt;stroke-linejoin:miter;stroke-miterlimit:8;stroke-dasharray:none;stroke-opacity:1" />
    <path
       inkscape:connector-curvature="0"
       id="path3574"
       d="m 226.60551,433.93763 0,50.54712 3.37425,0 0,-50.54712 -3.37425,0 z"
       style="fill:#a6a6a6;fill-opacity:1;fill-rule:evenodd;stroke:none" />
    <path
       inkscape:connector-curvature="0"
       id="path3576"
       d="m 226.60551,433.93763 0,50.54712 3.37425,0 0,-50.54712 z"
       style="fill:none;stroke:#000000;stroke-width:0.94830716px;stroke-linecap:butt;stroke-linejoin:miter;stroke-miterlimit:8;stroke-dasharray:none;stroke-opacity:1" />
    <path
       inkscape:connector-curvature="0"
       id="path3578"
       d="m 230.02379,487.96907 -0.86021,-2.60209 -1.72015,0 -0.83792,2.60209 z"
       style="fill:#a6a6a6;fill-opacity:1;fill-rule:evenodd;stroke:none" />
    <path
       inkscape:connector-curvature="0"
       id="path3580"
       d="m 230.02379,487.96907 -0.86021,-2.60209 -1.72015,0 -0.83792,2.60209 z"
       style="fill:none;stroke:#000000;stroke-width:0.94830716px;stroke-linecap:butt;stroke-linejoin:miter;stroke-miterlimit:8;stroke-dasharray:none;stroke-opacity:1" />
    <path
       inkscape:connector-curvature="0"
       id="path3582"
       d="m 156.2984,437.51028 0,60.03007 4.01376,0 0,-60.03007 -4.01376,0 z"
       style="fill:#a6a6a6;fill-opacity:1;fill-rule:evenodd;stroke:none" />
    <path
       inkscape:connector-curvature="0"
       id="path3584"
       d="m 156.2984,437.51028 0,60.03007 4.01376,0 0,-60.03007 z"
       style="fill:none;stroke:#000000;stroke-width:0.94830716px;stroke-linecap:butt;stroke-linejoin:miter;stroke-miterlimit:8;stroke-dasharray:none;stroke-opacity:1" />
    <path
       inkscape:connector-curvature="0"
       id="path3586"
       d="m 160.31216,501.62044 -1.08063,-3.2639 -2.11714,0 -1.05859,3.2639 z"
       style="fill:#a6a6a6;fill-opacity:1;fill-rule:evenodd;stroke:none" />
    <path
       transform="matrix(0.28222222,0,0,0.28222222,139.58173,350.68517)"
       inkscape:connector-curvature="0"
       id="path3588"
       d="m 73.4543,534.81 -3.829,-11.565 -7.5017,0 -3.7509,11.565 z"
       clip-path="url(#clipEmfPath1)"
       style="fill:none;stroke:#000000;stroke-width:3.36014342px;stroke-linecap:butt;stroke-linejoin:miter;stroke-miterlimit:8;stroke-dasharray:none;stroke-opacity:1" />
    <path
       inkscape:connector-curvature="0"
       id="path3590"
       d="m 232.09671,437.51028 0,60.03007 4.01377,0 0,-60.03007 -4.01377,0 z"
       style="fill:#a6a6a6;fill-opacity:1;fill-rule:evenodd;stroke:none" />
    <path
       inkscape:connector-curvature="0"
       id="path3592"
       d="m 232.09671,437.51028 0,60.03007 4.01377,0 0,-60.03007 z"
       style="fill:none;stroke:#000000;stroke-width:0.94830716px;stroke-linecap:butt;stroke-linejoin:miter;stroke-miterlimit:8;stroke-dasharray:none;stroke-opacity:1" />
    <path
       inkscape:connector-curvature="0"
       id="path3594"
       d="m 236.35319,501.62044 -1.05862,-3.2639 -2.13924,0 -1.05862,3.2639 z"
       style="fill:#a6a6a6;fill-opacity:1;fill-rule:evenodd;stroke:none" />
    <path
       transform="matrix(0.28222222,0,0,0.28222222,139.58173,350.68517)"
       inkscape:connector-curvature="0"
       id="path3596"
       d="m 342.891,534.81 -3.751,-11.565 -7.58,0 -3.751,11.565 z"
       clip-path="url(#clipEmfPath1)"
       style="fill:none;stroke:#000000;stroke-width:3.36014342px;stroke-linecap:butt;stroke-linejoin:miter;stroke-miterlimit:8;stroke-dasharray:none;stroke-opacity:1" />
    <path
       inkscape:connector-curvature="0"
       id="path3598"
       d="m 153.56375,444.39114 c -1.01448,0 -1.85251,0.83791 -1.85251,1.8525 l 0,7.41003 c 0,1.0366 0.83803,1.85251 1.85251,1.85251 l 85.52417,0 c 1.03632,0 1.85251,-0.81591 1.85251,-1.85251 l 0,-7.41003 c 0,-1.01459 -0.81619,-1.8525 -1.85251,-1.8525 z"
       style="fill:#b35e25;fill-opacity:1;fill-rule:evenodd;stroke:none" />
    <path
       inkscape:connector-curvature="0"
       id="path3600"
       d="m 153.56375,444.39114 c -1.01448,0 -1.85251,0.83791 -1.85251,1.8525 l 0,7.41003 c 0,1.0366 0.83803,1.85251 1.85251,1.85251 l 85.52417,0 c 1.03632,0 1.85251,-0.81591 1.85251,-1.85251 l 0,-7.41003 c 0,-1.01459 -0.81619,-1.8525 -1.85251,-1.8525 z"
       style="fill:none;stroke:#000000;stroke-width:0.94830716px;stroke-linecap:butt;stroke-linejoin:round;stroke-miterlimit:10;stroke-dasharray:none;stroke-opacity:1" />
    <path
       inkscape:connector-curvature="0"
       id="path3602"
       d="m 149.83667,442.78134 c -0.86007,0 -1.5658,0.70556 -1.5658,1.56577 0,0.85993 0.70573,1.56577 1.5658,1.56577 l 92.60321,0 c 0.86021,0 1.54375,-0.70584 1.54375,-1.56577 0,-0.86021 -0.68354,-1.56577 -1.54375,-1.56577 z"
       style="fill:#fce5d6;fill-opacity:1;fill-rule:evenodd;stroke:none" />
    <path
       inkscape:connector-curvature="0"
       id="path3604"
       d="m 149.83667,442.78134 c -0.86007,0 -1.5658,0.70556 -1.5658,1.56577 0,0.85993 0.70573,1.56577 1.5658,1.56577 l 92.60321,0 c 0.86021,0 1.54375,-0.70584 1.54375,-1.56577 0,-0.86021 -0.68354,-1.56577 -1.54375,-1.56577 z"
       style="fill:none;stroke:#000000;stroke-width:0.94830716px;stroke-linecap:butt;stroke-linejoin:round;stroke-miterlimit:10;stroke-dasharray:none;stroke-opacity:1" />
    <path
       inkscape:connector-curvature="0"
       id="path3606"
       d="m 243.7412,443.0678 -5.51349,-17.35611 -84.17879,0 -5.51341,17.35611 z"
       style="fill:#f8cbad;fill-opacity:1;fill-rule:evenodd;stroke:none" />
    <path
       inkscape:connector-curvature="0"
       id="path3608"
       d="m 243.7412,443.0678 -5.51349,-17.35611 -84.17879,0 -5.51341,17.35611 z"
       style="fill:none;stroke:#000000;stroke-width:0.94830716px;stroke-linecap:butt;stroke-linejoin:miter;stroke-miterlimit:8;stroke-dasharray:none;stroke-opacity:1" />
    <path
       inkscape:connector-curvature="0"
       id="path3610"
       d="m 159.43002,439.45112 c -0.41901,0 -0.74983,0.33076 -0.74983,0.74986 0,0.39681 0.33082,0.72785 0.74983,0.72785 l 73.17413,0 c 0.41882,0 0.74958,-0.33104 0.74958,-0.72785 0,-0.4191 -0.33076,-0.74986 -0.74958,-0.74986 z"
       style="fill:#f5b183;fill-opacity:1;fill-rule:evenodd;stroke:none" />
    <path
       inkscape:connector-curvature="0"
       id="path3612"
       d="m 159.43002,439.45112 c -0.41901,0 -0.74983,0.33076 -0.74983,0.74986 0,0.39681 0.33082,0.72785 0.74983,0.72785 l 73.17413,0 c 0.41882,0 0.74958,-0.33104 0.74958,-0.72785 0,-0.4191 -0.33076,-0.74986 -0.74958,-0.74986 z"
       style="fill:none;stroke:#000000;stroke-width:0.94830716px;stroke-linecap:butt;stroke-linejoin:round;stroke-miterlimit:10;stroke-dasharray:none;stroke-opacity:1" />
    <path
       inkscape:connector-curvature="0"
       id="path3614"
       d="m 190.30525,442.84738 -1.01459,-15.96672 -10.36518,0 -1.01459,15.96672 z"
       style="fill:#ffffff;fill-opacity:1;fill-rule:evenodd;stroke:none" />
    <path
       inkscape:connector-curvature="0"
       id="path3616"
       d="m 190.30525,442.84738 -1.01459,-15.96672 -10.36518,0 -1.01459,15.96672 z"
       style="fill:none;stroke:#000000;stroke-width:0.94830716px;stroke-linecap:butt;stroke-linejoin:miter;stroke-miterlimit:8;stroke-dasharray:none;stroke-opacity:1" />
    <path
       inkscape:connector-curvature="0"
       id="path3618"
       d="m 180.6016,433.62887 -0.74987,-0.044 -0.30875,5.27079 0.72785,0.044 z"
       style="fill:#00b050;fill-opacity:1;fill-rule:evenodd;stroke:none" />
    <path
       inkscape:connector-curvature="0"
       id="path3620"
       d="m 180.6016,433.62887 -0.74987,-0.044 -0.30875,5.27079 0.72785,0.044 z"
       style="fill:none;stroke:#000000;stroke-width:0.94830716px;stroke-linecap:butt;stroke-linejoin:miter;stroke-miterlimit:8;stroke-dasharray:none;stroke-opacity:1" />
    <path
       inkscape:connector-curvature="0"
       id="path3622"
       d="m 180.73396,430.74005 -0.74986,-0.0663 -0.11035,1.78646 0.74986,0.044 z"
       style="fill:#00b050;fill-opacity:1;fill-rule:evenodd;stroke:none" />
    <path
       inkscape:connector-curvature="0"
       id="path3624"
       d="m 180.73396,430.74005 -0.74986,-0.0663 -0.11035,1.78646 0.74986,0.044 z"
       style="fill:none;stroke:#000000;stroke-width:0.94830716px;stroke-linecap:butt;stroke-linejoin:miter;stroke-miterlimit:8;stroke-dasharray:none;stroke-opacity:1" />
    <path
       inkscape:connector-curvature="0"
       id="path3626"
       d="m 180.91035,427.89497 -0.74986,-0.044 -0.11035,1.76417 0.74986,0.0443 z"
       style="fill:#00b050;fill-opacity:1;fill-rule:evenodd;stroke:none" />
    <path
       inkscape:connector-curvature="0"
       id="path3628"
       d="m 180.91035,427.89497 -0.74986,-0.044 -0.11035,1.76417 0.74986,0.0443 z"
       style="fill:none;stroke:#000000;stroke-width:0.94830716px;stroke-linecap:butt;stroke-linejoin:miter;stroke-miterlimit:8;stroke-dasharray:none;stroke-opacity:1" />
    <path
       inkscape:connector-curvature="0"
       id="path3630"
       d="m 187.63655,438.74528 1.30133,0"
       style="fill:none;stroke:#000000;stroke-width:0.94830716px;stroke-linecap:butt;stroke-linejoin:round;stroke-miterlimit:10;stroke-dasharray:none;stroke-opacity:1" />
    <path
       inkscape:connector-curvature="0"
       id="path3632"
       d="m 187.59253,437.48826 1.30104,0"
       style="fill:none;stroke:#000000;stroke-width:0.94830716px;stroke-linecap:butt;stroke-linejoin:round;stroke-miterlimit:10;stroke-dasharray:none;stroke-opacity:1" />
    <path
       inkscape:connector-curvature="0"
       id="path3634"
       d="m 187.52649,436.23125 1.32305,0"
       style="fill:none;stroke:#000000;stroke-width:0.94830716px;stroke-linecap:butt;stroke-linejoin:round;stroke-miterlimit:10;stroke-dasharray:none;stroke-opacity:1" />
    <path
       inkscape:connector-curvature="0"
       id="path3636"
       d="m 187.41614,435.06256 1.32305,0"
       style="fill:none;stroke:#000000;stroke-width:0.94830716px;stroke-linecap:butt;stroke-linejoin:round;stroke-miterlimit:10;stroke-dasharray:none;stroke-opacity:1" />
    <path
       inkscape:connector-curvature="0"
       id="path3638"
       d="m 187.37211,434.04797 1.30104,0"
       style="fill:none;stroke:#000000;stroke-width:0.94830716px;stroke-linecap:butt;stroke-linejoin:round;stroke-miterlimit:10;stroke-dasharray:none;stroke-opacity:1" />
    <path
       inkscape:connector-curvature="0"
       id="path3640"
       d="m 187.3278,432.79096 1.30133,0"
       style="fill:none;stroke:#000000;stroke-width:0.94830716px;stroke-linecap:butt;stroke-linejoin:round;stroke-miterlimit:10;stroke-dasharray:none;stroke-opacity:1" />
    <path
       inkscape:connector-curvature="0"
       id="path3642"
       d="m 187.26176,431.53394 1.32306,0"
       style="fill:none;stroke:#000000;stroke-width:0.94830716px;stroke-linecap:butt;stroke-linejoin:round;stroke-miterlimit:10;stroke-dasharray:none;stroke-opacity:1" />
    <path
       inkscape:connector-curvature="0"
       id="path3644"
       d="m 187.21773,430.36497 1.30105,0"
       style="fill:none;stroke:#000000;stroke-width:0.94830716px;stroke-linecap:butt;stroke-linejoin:round;stroke-miterlimit:10;stroke-dasharray:none;stroke-opacity:1" />
    <path
       inkscape:connector-curvature="0"
       id="path3646"
       d="m 187.15141,428.97559 1.30133,0"
       style="fill:none;stroke:#000000;stroke-width:0.94830716px;stroke-linecap:butt;stroke-linejoin:round;stroke-miterlimit:10;stroke-dasharray:none;stroke-opacity:1" />
    <path
       inkscape:connector-curvature="0"
       id="path3648"
       d="m 187.04106,427.80691 1.32334,0"
       style="fill:none;stroke:#000000;stroke-width:0.94830716px;stroke-linecap:butt;stroke-linejoin:round;stroke-miterlimit:10;stroke-dasharray:none;stroke-opacity:1" />
    <path
       inkscape:connector-curvature="0"
       id="path3650"
       d="m 186.33551,438.28215 c -0.15438,0 -0.26473,0.15438 -0.26473,0.33105 0,0.17639 0.11035,0.33077 0.26473,0.33077 0.17639,0 0.28674,-0.15438 0.28674,-0.33077 0,-0.17667 -0.11035,-0.33105 -0.28674,-0.33105"
       style="fill:none;stroke:#00b050;stroke-width:0.35285848px;stroke-linecap:butt;stroke-linejoin:round;stroke-miterlimit:10;stroke-dasharray:none;stroke-opacity:1" />
    <path
       inkscape:connector-curvature="0"
       id="path3652"
       d="m 185.32092,438.32646 c -0.15438,0 -0.28674,0.15438 -0.28674,0.33077 0,0.17639 0.13236,0.33076 0.28674,0.33076 0.15437,0 0.26472,-0.15437 0.26472,-0.33076 0,-0.17639 -0.11035,-0.33077 -0.26472,-0.33077"
       style="fill:none;stroke:#00b050;stroke-width:0.35285848px;stroke-linecap:butt;stroke-linejoin:round;stroke-miterlimit:10;stroke-dasharray:none;stroke-opacity:1" />
    <path
       inkscape:connector-curvature="0"
       id="path3654"
       d="m 184.2846,438.32646 c -0.15438,0 -0.28674,0.15438 -0.28674,0.33077 0,0.17639 0.13236,0.33076 0.28674,0.33076 0.15437,0 0.28645,-0.15437 0.28645,-0.33076 0,-0.17639 -0.13208,-0.33077 -0.28645,-0.33077"
       style="fill:none;stroke:#00b050;stroke-width:0.35285848px;stroke-linecap:butt;stroke-linejoin:round;stroke-miterlimit:10;stroke-dasharray:none;stroke-opacity:1" />
    <path
       inkscape:connector-curvature="0"
       id="path3656"
       d="m 183.09362,438.37049 c -0.15437,0 -0.28674,0.15438 -0.28674,0.33076 0,0.17639 0.13237,0.33077 0.28674,0.33077 0.15438,0 0.28674,-0.15438 0.28674,-0.33077 0,-0.17638 -0.13236,-0.33076 -0.28674,-0.33076"
       style="fill:none;stroke:#00b050;stroke-width:0.35285848px;stroke-linecap:butt;stroke-linejoin:round;stroke-miterlimit:10;stroke-dasharray:none;stroke-opacity:1" />
    <path
       inkscape:connector-curvature="0"
       id="path3658"
       d="m 186.33551,437.17951 c -0.15438,0 -0.26473,0.15438 -0.26473,0.33077 0,0.17667 0.11035,0.33104 0.26473,0.33104 0.17639,0 0.28674,-0.15437 0.28674,-0.33104 0,-0.17639 -0.11035,-0.33077 -0.28674,-0.33077"
       style="fill:none;stroke:#00b050;stroke-width:0.35285848px;stroke-linecap:butt;stroke-linejoin:round;stroke-miterlimit:10;stroke-dasharray:none;stroke-opacity:1" />
    <path
       inkscape:connector-curvature="0"
       id="path3660"
       d="m 185.32092,437.22382 c -0.15438,0 -0.28674,0.15438 -0.28674,0.33077 0,0.1984 0.13236,0.33076 0.28674,0.33076 0.15437,0 0.26472,-0.13236 0.26472,-0.33076 0,-0.17639 -0.11035,-0.33077 -0.26472,-0.33077"
       style="fill:none;stroke:#00b050;stroke-width:0.35285848px;stroke-linecap:butt;stroke-linejoin:round;stroke-miterlimit:10;stroke-dasharray:none;stroke-opacity:1" />
    <path
       inkscape:connector-curvature="0"
       id="path3662"
       d="m 184.2846,437.22382 c -0.15438,0 -0.28674,0.15438 -0.28674,0.33077 0,0.1984 0.13236,0.33076 0.28674,0.33076 0.15437,0 0.28645,-0.13236 0.28645,-0.33076 0,-0.17639 -0.13208,-0.33077 -0.28645,-0.33077"
       style="fill:none;stroke:#00b050;stroke-width:0.35285848px;stroke-linecap:butt;stroke-linejoin:round;stroke-miterlimit:10;stroke-dasharray:none;stroke-opacity:1" />
    <path
       inkscape:connector-curvature="0"
       id="path3664"
       d="m 183.09362,437.26785 c -0.15437,0 -0.28674,0.15437 -0.28674,0.33076 0,0.1984 0.13237,0.33077 0.28674,0.33077 0.15438,0 0.28674,-0.13237 0.28674,-0.33077 0,-0.17639 -0.13236,-0.33076 -0.28674,-0.33076"
       style="fill:none;stroke:#00b050;stroke-width:0.35285848px;stroke-linecap:butt;stroke-linejoin:round;stroke-miterlimit:10;stroke-dasharray:none;stroke-opacity:1" />
    <path
       inkscape:connector-curvature="0"
       id="path3666"
       d="m 186.29148,436.07687 c -0.15437,0 -0.26472,0.15438 -0.26472,0.33076 0,0.19869 0.11035,0.33077 0.26472,0.33077 0.17639,0 0.28646,-0.13208 0.28646,-0.33077 0,-0.17638 -0.11007,-0.33076 -0.28646,-0.33076"
       style="fill:none;stroke:#00b050;stroke-width:0.35285848px;stroke-linecap:butt;stroke-linejoin:round;stroke-miterlimit:10;stroke-dasharray:none;stroke-opacity:1" />
    <path
       inkscape:connector-curvature="0"
       id="path3668"
       d="m 185.27689,436.1209 c -0.15437,0 -0.28674,0.15437 -0.28674,0.33104 0,0.19841 0.13237,0.33077 0.28674,0.33077 0.15438,0 0.26473,-0.13236 0.26473,-0.33077 0,-0.17667 -0.11035,-0.33104 -0.26473,-0.33104"
       style="fill:none;stroke:#00b050;stroke-width:0.35285848px;stroke-linecap:butt;stroke-linejoin:round;stroke-miterlimit:10;stroke-dasharray:none;stroke-opacity:1" />
    <path
       inkscape:connector-curvature="0"
       id="path3670"
       d="m 184.24029,436.1209 c -0.15438,0 -0.28674,0.15437 -0.28674,0.33104 0,0.19841 0.13236,0.33077 0.28674,0.33077 0.15438,0 0.28674,-0.13236 0.28674,-0.33077 0,-0.17667 -0.13236,-0.33104 -0.28674,-0.33104"
       style="fill:none;stroke:#00b050;stroke-width:0.35285848px;stroke-linecap:butt;stroke-linejoin:round;stroke-miterlimit:10;stroke-dasharray:none;stroke-opacity:1" />
    <path
       inkscape:connector-curvature="0"
       id="path3672"
       d="m 183.04959,436.16521 c -0.15437,0 -0.28673,0.15437 -0.28673,0.33076 0,0.1984 0.13236,0.33076 0.28673,0.33076 0.15438,0 0.28646,-0.13236 0.28646,-0.33076 0,-0.17639 -0.13208,-0.33076 -0.28646,-0.33076"
       style="fill:none;stroke:#00b050;stroke-width:0.35285848px;stroke-linecap:butt;stroke-linejoin:round;stroke-miterlimit:10;stroke-dasharray:none;stroke-opacity:1" />
    <path
       inkscape:connector-curvature="0"
       id="path3674"
       d="m 186.20315,435.04027 c -0.15438,0 -0.26473,0.13236 -0.26473,0.33104 0,0.17639 0.11035,0.33077 0.26473,0.33077 0.17638,0 0.28673,-0.15438 0.28673,-0.33077 0,-0.19868 -0.11035,-0.33104 -0.28673,-0.33104"
       style="fill:none;stroke:#00b050;stroke-width:0.35285848px;stroke-linecap:butt;stroke-linejoin:round;stroke-miterlimit:10;stroke-dasharray:none;stroke-opacity:1" />
    <path
       inkscape:connector-curvature="0"
       id="path3676"
       d="m 185.18856,435.08458 c -0.15438,0 -0.28646,0.15437 -0.28646,0.33076 0,0.17639 0.13208,0.33077 0.28646,0.33077 0.15437,0 0.26472,-0.15438 0.26472,-0.33077 0,-0.17639 -0.11035,-0.33076 -0.26472,-0.33076"
       style="fill:none;stroke:#00b050;stroke-width:0.35285848px;stroke-linecap:butt;stroke-linejoin:round;stroke-miterlimit:10;stroke-dasharray:none;stroke-opacity:1" />
    <path
       inkscape:connector-curvature="0"
       id="path3678"
       d="m 184.15224,435.08458 c -0.15438,0 -0.28674,0.15437 -0.28674,0.33076 0,0.17639 0.13236,0.33077 0.28674,0.33077 0.15437,0 0.28673,-0.15438 0.28673,-0.33077 0,-0.17639 -0.13236,-0.33076 -0.28673,-0.33076"
       style="fill:none;stroke:#00b050;stroke-width:0.35285848px;stroke-linecap:butt;stroke-linejoin:round;stroke-miterlimit:10;stroke-dasharray:none;stroke-opacity:1" />
    <path
       inkscape:connector-curvature="0"
       id="path3680"
       d="m 182.96126,435.1286 c -0.15438,0 -0.28674,0.15438 -0.28674,0.33077 0,0.17639 0.13236,0.33076 0.28674,0.33076 0.15437,0 0.28674,-0.15437 0.28674,-0.33076 0,-0.17639 -0.13237,-0.33077 -0.28674,-0.33077"
       style="fill:none;stroke:#00b050;stroke-width:0.35285848px;stroke-linecap:butt;stroke-linejoin:round;stroke-miterlimit:10;stroke-dasharray:none;stroke-opacity:1" />
    <path
       inkscape:connector-curvature="0"
       id="path3682"
       d="m 186.20315,433.8936 c -0.15438,0 -0.26473,0.15437 -0.26473,0.33076 0,0.17639 0.11035,0.33077 0.26473,0.33077 0.17638,0 0.28673,-0.15438 0.28673,-0.33077 0,-0.17639 -0.11035,-0.33076 -0.28673,-0.33076"
       style="fill:none;stroke:#00b050;stroke-width:0.35285848px;stroke-linecap:butt;stroke-linejoin:round;stroke-miterlimit:10;stroke-dasharray:none;stroke-opacity:1" />
    <path
       inkscape:connector-curvature="0"
       id="path3684"
       d="m 185.18856,433.93763 c -0.15438,0 -0.28646,0.15437 -0.28646,0.33076 0,0.17667 0.13208,0.33105 0.28646,0.33105 0.15437,0 0.26472,-0.15438 0.26472,-0.33105 0,-0.17639 -0.11035,-0.33076 -0.26472,-0.33076"
       style="fill:none;stroke:#00b050;stroke-width:0.35285848px;stroke-linecap:butt;stroke-linejoin:round;stroke-miterlimit:10;stroke-dasharray:none;stroke-opacity:1" />
    <path
       inkscape:connector-curvature="0"
       id="path3686"
       d="m 184.15224,433.93763 c -0.15438,0 -0.28674,0.15437 -0.28674,0.33076 0,0.17667 0.13236,0.33105 0.28674,0.33105 0.15437,0 0.28673,-0.15438 0.28673,-0.33105 0,-0.17639 -0.13236,-0.33076 -0.28673,-0.33076"
       style="fill:none;stroke:#00b050;stroke-width:0.35285848px;stroke-linecap:butt;stroke-linejoin:round;stroke-miterlimit:10;stroke-dasharray:none;stroke-opacity:1" />
    <path
       inkscape:connector-curvature="0"
       id="path3688"
       d="m 182.96126,433.98193 c -0.15438,0 -0.28674,0.15438 -0.28674,0.33077 0,0.17639 0.13236,0.33076 0.28674,0.33076 0.15437,0 0.28674,-0.15437 0.28674,-0.33076 0,-0.17639 -0.13237,-0.33077 -0.28674,-0.33077"
       style="fill:none;stroke:#00b050;stroke-width:0.35285848px;stroke-linecap:butt;stroke-linejoin:round;stroke-miterlimit:10;stroke-dasharray:none;stroke-opacity:1" />
    <path
       inkscape:connector-curvature="0"
       id="path3690"
       d="m 186.15912,432.79096 c -0.15438,0 -0.26473,0.15437 -0.26473,0.33076 0,0.1984 0.11035,0.33077 0.26473,0.33077 0.15437,0 0.28674,-0.13237 0.28674,-0.33077 0,-0.17639 -0.13237,-0.33076 -0.28674,-0.33076"
       style="fill:none;stroke:#00b050;stroke-width:0.35285848px;stroke-linecap:butt;stroke-linejoin:round;stroke-miterlimit:10;stroke-dasharray:none;stroke-opacity:1" />
    <path
       inkscape:connector-curvature="0"
       id="path3692"
       d="m 185.14453,432.83498 c -0.17639,0 -0.28674,0.15438 -0.28674,0.33077 0,0.19868 0.11035,0.33076 0.28674,0.33076 0.15438,0 0.26472,-0.13208 0.26472,-0.33076 0,-0.17639 -0.11034,-0.33077 -0.26472,-0.33077"
       style="fill:none;stroke:#00b050;stroke-width:0.35285848px;stroke-linecap:butt;stroke-linejoin:round;stroke-miterlimit:10;stroke-dasharray:none;stroke-opacity:1" />
    <path
       inkscape:connector-curvature="0"
       id="path3694"
       d="m 184.10793,432.83498 c -0.15438,0 -0.28646,0.15438 -0.28646,0.33077 0,0.19868 0.13208,0.33076 0.28646,0.33076 0.15437,0 0.28674,-0.13208 0.28674,-0.33076 0,-0.17639 -0.13237,-0.33077 -0.28674,-0.33077"
       style="fill:none;stroke:#00b050;stroke-width:0.35285848px;stroke-linecap:butt;stroke-linejoin:round;stroke-miterlimit:10;stroke-dasharray:none;stroke-opacity:1" />
    <path
       inkscape:connector-curvature="0"
       id="path3696"
       d="m 182.91723,432.87901 c -0.15437,0 -0.28674,0.15438 -0.28674,0.33105 0,0.1984 0.13237,0.33076 0.28674,0.33076 0.15438,0 0.28674,-0.13236 0.28674,-0.33076 0,-0.17667 -0.13236,-0.33105 -0.28674,-0.33105"
       style="fill:none;stroke:#00b050;stroke-width:0.35285848px;stroke-linecap:butt;stroke-linejoin:round;stroke-miterlimit:10;stroke-dasharray:none;stroke-opacity:1" />
    <path
       inkscape:connector-curvature="0"
       id="path3698"
       d="m 186.15912,431.75435 c -0.15438,0 -0.26473,0.13237 -0.26473,0.33077 0,0.17639 0.11035,0.33076 0.26473,0.33076 0.15437,0 0.28674,-0.15437 0.28674,-0.33076 0,-0.1984 -0.13237,-0.33077 -0.28674,-0.33077"
       style="fill:none;stroke:#00b050;stroke-width:0.35285848px;stroke-linecap:butt;stroke-linejoin:round;stroke-miterlimit:10;stroke-dasharray:none;stroke-opacity:1" />
    <path
       inkscape:connector-curvature="0"
       id="path3700"
       d="m 185.14453,431.79838 c -0.17639,0 -0.28674,0.13236 -0.28674,0.33105 0,0.17639 0.11035,0.33076 0.28674,0.33076 0.15438,0 0.26472,-0.15437 0.26472,-0.33076 0,-0.19869 -0.11034,-0.33105 -0.26472,-0.33105"
       style="fill:none;stroke:#00b050;stroke-width:0.35285848px;stroke-linecap:butt;stroke-linejoin:round;stroke-miterlimit:10;stroke-dasharray:none;stroke-opacity:1" />
    <path
       inkscape:connector-curvature="0"
       id="path3702"
       d="m 184.10793,431.79838 c -0.15438,0 -0.28646,0.13236 -0.28646,0.33105 0,0.17639 0.13208,0.33076 0.28646,0.33076 0.15437,0 0.28674,-0.15437 0.28674,-0.33076 0,-0.19869 -0.13237,-0.33105 -0.28674,-0.33105"
       style="fill:none;stroke:#00b050;stroke-width:0.35285848px;stroke-linecap:butt;stroke-linejoin:round;stroke-miterlimit:10;stroke-dasharray:none;stroke-opacity:1" />
    <path
       inkscape:connector-curvature="0"
       id="path3704"
       d="m 182.91723,431.84269 c -0.15437,0 -0.28674,0.13236 -0.28674,0.33076 0,0.17639 0.13237,0.33077 0.28674,0.33077 0.15438,0 0.28674,-0.15438 0.28674,-0.33077 0,-0.1984 -0.13236,-0.33076 -0.28674,-0.33076"
       style="fill:none;stroke:#00b050;stroke-width:0.35285848px;stroke-linecap:butt;stroke-linejoin:round;stroke-miterlimit:10;stroke-dasharray:none;stroke-opacity:1" />
    <path
       inkscape:connector-curvature="0"
       id="path3706"
       d="m 186.07078,430.76206 c -0.15437,0 -0.26472,0.13236 -0.26472,0.33077 0,0.17638 0.11035,0.33076 0.26472,0.33076 0.15438,0 0.28674,-0.15438 0.28674,-0.33076 0,-0.19841 -0.13236,-0.33077 -0.28674,-0.33077"
       style="fill:none;stroke:#00b050;stroke-width:0.35285848px;stroke-linecap:butt;stroke-linejoin:round;stroke-miterlimit:10;stroke-dasharray:none;stroke-opacity:1" />
    <path
       inkscape:connector-curvature="0"
       id="path3708"
       d="m 185.05648,430.80609 c -0.17667,0 -0.28674,0.13236 -0.28674,0.33076 0,0.17639 0.11007,0.33077 0.28674,0.33077 0.15437,0 0.26444,-0.15438 0.26444,-0.33077 0,-0.1984 -0.11007,-0.33076 -0.26444,-0.33076"
       style="fill:none;stroke:#00b050;stroke-width:0.35285848px;stroke-linecap:butt;stroke-linejoin:round;stroke-miterlimit:10;stroke-dasharray:none;stroke-opacity:1" />
    <path
       inkscape:connector-curvature="0"
       id="path3710"
       d="m 184.01987,430.80609 c -0.15437,0 -0.28673,0.13236 -0.28673,0.33076 0,0.17639 0.13236,0.33077 0.28673,0.33077 0.15438,0 0.28674,-0.15438 0.28674,-0.33077 0,-0.1984 -0.13236,-0.33076 -0.28674,-0.33076"
       style="fill:none;stroke:#00b050;stroke-width:0.35285848px;stroke-linecap:butt;stroke-linejoin:round;stroke-miterlimit:10;stroke-dasharray:none;stroke-opacity:1" />
    <path
       inkscape:connector-curvature="0"
       id="path3712"
       d="m 182.8289,430.85011 c -0.15438,0 -0.28674,0.13237 -0.28674,0.33077 0,0.17667 0.13236,0.33105 0.28674,0.33105 0.15437,0 0.28673,-0.15438 0.28673,-0.33105 0,-0.1984 -0.13236,-0.33077 -0.28673,-0.33077"
       style="fill:none;stroke:#00b050;stroke-width:0.35285848px;stroke-linecap:butt;stroke-linejoin:round;stroke-miterlimit:10;stroke-dasharray:none;stroke-opacity:1" />
    <path
       inkscape:connector-curvature="0"
       id="path3714"
       d="m 186.07078,429.74747 c -0.15437,0 -0.26472,0.15438 -0.26472,0.35278 0,0.17667 0.11035,0.33105 0.26472,0.33105 0.15438,0 0.28674,-0.15438 0.28674,-0.33105 0,-0.1984 -0.13236,-0.35278 -0.28674,-0.35278"
       style="fill:none;stroke:#00b050;stroke-width:0.35285848px;stroke-linecap:butt;stroke-linejoin:round;stroke-miterlimit:10;stroke-dasharray:none;stroke-opacity:1" />
    <path
       inkscape:connector-curvature="0"
       id="path3716"
       d="m 185.05648,429.7915 c -0.17667,0 -0.28674,0.15437 -0.28674,0.35306 0,0.17639 0.11007,0.33076 0.28674,0.33076 0.15437,0 0.26444,-0.15437 0.26444,-0.33076 0,-0.19869 -0.11007,-0.35306 -0.26444,-0.35306"
       style="fill:none;stroke:#00b050;stroke-width:0.35285848px;stroke-linecap:butt;stroke-linejoin:round;stroke-miterlimit:10;stroke-dasharray:none;stroke-opacity:1" />
    <path
       inkscape:connector-curvature="0"
       id="path3718"
       d="m 184.01987,429.7915 c -0.15437,0 -0.28673,0.15437 -0.28673,0.35306 0,0.17639 0.13236,0.33076 0.28673,0.33076 0.15438,0 0.28674,-0.15437 0.28674,-0.33076 0,-0.19869 -0.13236,-0.35306 -0.28674,-0.35306"
       style="fill:none;stroke:#00b050;stroke-width:0.35285848px;stroke-linecap:butt;stroke-linejoin:round;stroke-miterlimit:10;stroke-dasharray:none;stroke-opacity:1" />
    <path
       inkscape:connector-curvature="0"
       id="path3720"
       d="m 182.8289,429.85782 c -0.15438,0 -0.28674,0.13236 -0.28674,0.33077 0,0.17638 0.13236,0.33076 0.28674,0.33076 0.15437,0 0.28673,-0.15438 0.28673,-0.33076 0,-0.19841 -0.13236,-0.33077 -0.28673,-0.33077"
       style="fill:none;stroke:#00b050;stroke-width:0.35285848px;stroke-linecap:butt;stroke-linejoin:round;stroke-miterlimit:10;stroke-dasharray:none;stroke-opacity:1" />
    <path
       inkscape:connector-curvature="0"
       id="path3722"
       d="m 186.02676,428.71087 c -0.15438,0 -0.28674,0.15438 -0.28674,0.33105 0,0.17639 0.13236,0.33076 0.28674,0.33076 0.15437,0 0.28673,-0.15437 0.28673,-0.33076 0,-0.17667 -0.13236,-0.33105 -0.28673,-0.33105"
       style="fill:none;stroke:#00b050;stroke-width:0.35285848px;stroke-linecap:butt;stroke-linejoin:round;stroke-miterlimit:10;stroke-dasharray:none;stroke-opacity:1" />
    <path
       inkscape:connector-curvature="0"
       id="path3724"
       d="m 184.99015,428.75518 c -0.15437,0 -0.26472,0.15437 -0.26472,0.33076 0,0.17639 0.11035,0.33077 0.26472,0.33077 0.17639,0 0.28674,-0.15438 0.28674,-0.33077 0,-0.17639 -0.11035,-0.33076 -0.28674,-0.33076"
       style="fill:none;stroke:#00b050;stroke-width:0.35285848px;stroke-linecap:butt;stroke-linejoin:round;stroke-miterlimit:10;stroke-dasharray:none;stroke-opacity:1" />
    <path
       inkscape:connector-curvature="0"
       id="path3726"
       d="m 183.97585,428.75518 c -0.15438,0 -0.28674,0.15437 -0.28674,0.33076 0,0.17639 0.13236,0.33077 0.28674,0.33077 0.15437,0 0.26444,-0.15438 0.26444,-0.33077 0,-0.17639 -0.11007,-0.33076 -0.26444,-0.33076"
       style="fill:none;stroke:#00b050;stroke-width:0.35285848px;stroke-linecap:butt;stroke-linejoin:round;stroke-miterlimit:10;stroke-dasharray:none;stroke-opacity:1" />
    <path
       inkscape:connector-curvature="0"
       id="path3728"
       d="m 182.78487,428.79921 c -0.15438,0 -0.28674,0.15437 -0.28674,0.33076 0,0.17639 0.13236,0.33076 0.28674,0.33076 0.15438,0 0.28674,-0.15437 0.28674,-0.33076 0,-0.17639 -0.13236,-0.33076 -0.28674,-0.33076"
       style="fill:none;stroke:#00b050;stroke-width:0.35285848px;stroke-linecap:butt;stroke-linejoin:round;stroke-miterlimit:10;stroke-dasharray:none;stroke-opacity:1" />
    <path
       inkscape:connector-curvature="0"
       id="path3730"
       d="m 186.02676,427.65254 c -0.15438,0 -0.28674,0.15437 -0.28674,0.35277 0,0.17639 0.13236,0.33077 0.28674,0.33077 0.15437,0 0.28673,-0.15438 0.28673,-0.33077 0,-0.1984 -0.13236,-0.35277 -0.28673,-0.35277"
       style="fill:none;stroke:#00b050;stroke-width:0.35285848px;stroke-linecap:butt;stroke-linejoin:round;stroke-miterlimit:10;stroke-dasharray:none;stroke-opacity:1" />
    <path
       inkscape:connector-curvature="0"
       id="path3732"
       d="m 184.99015,427.69656 c -0.15437,0 -0.26472,0.15438 -0.26472,0.35278 0,0.17639 0.11035,0.33077 0.26472,0.33077 0.17639,0 0.28674,-0.15438 0.28674,-0.33077 0,-0.1984 -0.11035,-0.35278 -0.28674,-0.35278"
       style="fill:none;stroke:#00b050;stroke-width:0.35285848px;stroke-linecap:butt;stroke-linejoin:round;stroke-miterlimit:10;stroke-dasharray:none;stroke-opacity:1" />
    <path
       inkscape:connector-curvature="0"
       id="path3734"
       d="m 183.97585,427.69656 c -0.15438,0 -0.28674,0.15438 -0.28674,0.35278 0,0.17639 0.13236,0.33077 0.28674,0.33077 0.15437,0 0.26444,-0.15438 0.26444,-0.33077 0,-0.1984 -0.11007,-0.35278 -0.26444,-0.35278"
       style="fill:none;stroke:#00b050;stroke-width:0.35285848px;stroke-linecap:butt;stroke-linejoin:round;stroke-miterlimit:10;stroke-dasharray:none;stroke-opacity:1" />
    <path
       inkscape:connector-curvature="0"
       id="path3736"
       d="m 182.78487,427.7626 c -0.15438,0 -0.28674,0.13237 -0.28674,0.33077 0,0.17667 0.13236,0.33104 0.28674,0.33104 0.15438,0 0.28674,-0.15437 0.28674,-0.33104 0,-0.1984 -0.13236,-0.33077 -0.28674,-0.33077"
       style="fill:none;stroke:#00b050;stroke-width:0.35285848px;stroke-linecap:butt;stroke-linejoin:round;stroke-miterlimit:10;stroke-dasharray:none;stroke-opacity:1" />
    <path
       inkscape:connector-curvature="0"
       id="path3738"
       d="m 189.00392,441.94314 -0.17639,-1.47743 -9.13017,0 -0.15438,1.47743 z"
       style="fill:#00b050;fill-opacity:1;fill-rule:evenodd;stroke:none" />
    <path
       inkscape:connector-curvature="0"
       id="path3740"
       d="m 189.00392,441.94314 -0.17639,-1.47743 -9.13017,0 -0.15438,1.47743 z"
       style="fill:none;stroke:#000000;stroke-width:0.94830716px;stroke-linecap:butt;stroke-linejoin:miter;stroke-miterlimit:8;stroke-dasharray:none;stroke-opacity:1" />
    <path
       inkscape:connector-curvature="0"
       id="path3742"
       d="m 154.95313,410.27414 0.26464,1.76417 15.65817,-2.31563 -0.26473,-1.76417 z"
       style="fill:#ffc000;fill-opacity:1;fill-rule:evenodd;stroke:none" />
    <path
       inkscape:connector-curvature="0"
       id="path3744"
       d="m 154.95313,410.27414 0.26464,1.76417 15.65817,-2.31563 -0.26473,-1.76417 z"
       style="fill:none;stroke:#000000;stroke-width:0.70571697px;stroke-linecap:butt;stroke-linejoin:miter;stroke-miterlimit:8;stroke-dasharray:none;stroke-opacity:1" />
    <path
       inkscape:connector-curvature="0"
       id="path3746"
       d="m 172.99289,408.46566 -2.2273,-0.48514 0.24271,1.61008 z"
       style="fill:#ffe699;fill-opacity:1;fill-rule:evenodd;stroke:none" />
    <path
       inkscape:connector-curvature="0"
       id="path3748"
       d="m 172.99289,408.46566 -2.2273,-0.48514 0.24271,1.61008 z"
       style="fill:none;stroke:#000000;stroke-width:0.70571697px;stroke-linecap:butt;stroke-linejoin:miter;stroke-miterlimit:8;stroke-dasharray:none;stroke-opacity:1" />
    <path
       inkscape:connector-curvature="0"
       id="path3750"
       d="m 153.03447,410.58289 c -0.17644,0.022 -0.30875,0.1984 -0.26467,0.37479 l 0.13234,1.01459 c 0.0441,0.17639 0.19848,0.28674 0.3749,0.26472 l 0.44109,-0.0663 c 0.17641,-0.022 0.30875,-0.17638 0.28668,-0.35277 l -0.15438,-1.01459 c -0.022,-0.17639 -0.19846,-0.30876 -0.3749,-0.28646 z"
       style="fill:#ff7c80;fill-opacity:1;fill-rule:evenodd;stroke:none" />
    <path
       inkscape:connector-curvature="0"
       id="path3752"
       d="m 153.03447,410.58289 c -0.17644,0.022 -0.30875,0.1984 -0.26467,0.37479 l 0.13234,1.01459 c 0.0441,0.17639 0.19848,0.28674 0.3749,0.26472 l 0.44109,-0.0663 c 0.17641,-0.022 0.30875,-0.17638 0.28668,-0.35277 l -0.15438,-1.01459 c -0.022,-0.17639 -0.19846,-0.30876 -0.3749,-0.28646 z"
       style="fill:none;stroke:#000000;stroke-width:0.94830716px;stroke-linecap:butt;stroke-linejoin:round;stroke-miterlimit:10;stroke-dasharray:none;stroke-opacity:1" />
    <path
       inkscape:connector-curvature="0"
       id="path3754"
       d="m 153.54168,410.47254 0.26467,1.76445 1.54375,-0.22069 -0.26466,-1.76417 z"
       style="fill:#c0c0c0;fill-opacity:1;fill-rule:evenodd;stroke:none" />
    <path
       inkscape:connector-curvature="0"
       id="path3756"
       d="m 153.54168,410.47254 0.26467,1.76445 1.54375,-0.22069 -0.26466,-1.76417 z"
       style="fill:none;stroke:#000000;stroke-width:0.70571697px;stroke-linecap:butt;stroke-linejoin:miter;stroke-miterlimit:8;stroke-dasharray:none;stroke-opacity:1" />
    <path
       inkscape:connector-curvature="0"
       id="path3758"
       d="m 172.13296,408.35559 c 0.022,0.26444 0.022,0.52917 0.13236,0.52917 0.0881,0.022 0.48514,-0.35278 0.48514,-0.44111 0,-0.0881 -0.24271,-0.0881 -0.48514,-0.11035 z"
       style="fill:#000000;fill-opacity:1;fill-rule:evenodd;stroke:none" />
    <path
       inkscape:connector-curvature="0"
       id="path3760"
       d="m 217.54138,437.9957 -1.69813,-10.49754 -17.46645,0 -1.72014,10.49754 z"
       style="fill:#ffffff;fill-opacity:1;fill-rule:evenodd;stroke:none" />
    <path
       inkscape:connector-curvature="0"
       id="path3762"
       d="m 217.54138,437.9957 -1.69813,-10.49754 -17.46645,0 -1.72014,10.49754 z"
       style="fill:none;stroke:#000000;stroke-width:0.94830716px;stroke-linecap:butt;stroke-linejoin:miter;stroke-miterlimit:8;stroke-dasharray:none;stroke-opacity:1" />
    <path
       inkscape:connector-curvature="0"
       id="path3764"
       d="m 199.45743,432.39387 c 0.0881,0.17639 0.022,0.4191 0.24243,0.52945 0.39709,0.22041 1.43369,0.35278 1.43369,0.35278 0.3968,-0.044 0.83792,-0.044 1.21299,-0.17639 0.28645,-0.11035 0.44083,-0.35278 0.70555,-0.52945 0.61751,-0.37479 0.72786,-0.35278 1.45571,-0.52917 0.24243,0.066 0.46312,0.17639 0.70555,0.17639 0.33077,0 0.72785,-0.33076 0.97028,-0.17639 0.24271,0.17639 -0.50715,0.57348 -0.24243,0.70584 0.33077,0.17639 0.79389,-0.11035 1.21299,-0.17667 0.50716,-0.24243 0.9923,-0.66153 1.67612,-0.17639 0.22042,0.17639 0.15438,0.48514 0.24243,0.70584 0.4191,-0.0883 2.35966,-0.63952 2.8671,-0.52945 0.24243,0.0663 0.066,0.39709 0.24243,0.52945 0.17638,0.13236 0.48514,0.13236 0.72785,0.17639 1.58778,-0.37479 0.92625,-0.35278 1.91854,-0.35278"
       style="fill:none;stroke:#000000;stroke-width:0.94830716px;stroke-linecap:butt;stroke-linejoin:round;stroke-miterlimit:10;stroke-dasharray:none;stroke-opacity:1" />
    <path
       inkscape:connector-curvature="0"
       id="path3766"
       d="m 199.50146,435.43735 c 0.044,0.11035 0.0663,0.24272 0.13236,0.35278 0.30875,0.63952 0.30875,0.35306 1.16896,0.24271 0.11007,-0.0883 0.24243,-0.15437 0.35278,-0.24271 0.13236,-0.11006 0.17639,-0.35278 0.35278,-0.35278 0.13236,0 0.15437,0.24272 0.24271,0.35278 0.26444,-0.044 0.74986,-0.088 1.05862,-0.24243 0.11006,-0.0443 0.24242,-0.13236 0.35277,-0.22069 0.11035,-0.11007 0.22042,-0.24243 0.35278,-0.35278 0.2207,0.066 0.46313,0.15437 0.70584,0.22041 0.11007,0.0443 0.22041,0.0883 0.35278,0.13237 0.15437,0.022 0.30875,0.0663 0.46312,0.11034 0.19841,0.044 0.39709,0.066 0.59549,0.11035 0.11035,0.044 0.22042,0.088 0.35278,0.13237 0.17639,0.044 0.37507,0.066 0.57348,0.11006 0.28673,-0.044 0.55118,-0.15437 0.83791,-0.11006 0.39709,0.044 0.33077,0.37479 0.57348,0.57319 0.11035,0.0883 0.24271,0.0883 0.35278,0.13236 0.99257,-0.33076 -0.5732,0.15438 1.19097,-0.24243 0.22042,-0.0443 0.44112,-0.17667 0.70584,-0.24271 0.70556,-0.13236 0.39681,-0.044 0.92626,-0.22041 0.13208,0.022 0.24242,0.0881 0.35277,0.11006 0.15438,0.0443 0.33077,0.0443 0.48514,0.11035 0.11035,0.066 0.22042,0.15438 0.35278,0.24271 1.78647,-0.11035 1.16897,-0.11035 1.87452,-0.11035"
       style="fill:none;stroke:#000000;stroke-width:0.94830716px;stroke-linecap:butt;stroke-linejoin:round;stroke-miterlimit:10;stroke-dasharray:none;stroke-opacity:1" />
    <path
       inkscape:connector-curvature="0"
       id="path3768"
       d="m 199.85423,430.03421 c 0.0883,0.11035 0.11035,0.30875 0.24272,0.35278 0.39708,0.13236 0.74986,-0.41882 0.94826,-0.59549 0.0883,-0.0881 0.2207,-0.15438 0.35278,-0.24243 0.0223,0.15438 0,0.35278 0.11035,0.48514 0.0663,0.0883 0.2207,0.13236 0.35278,0.11035 0.35306,-0.0443 0.66181,-0.28674 0.94855,-0.46313 0.066,-0.13236 0.11006,-0.26472 0.22041,-0.35306 0.11035,-0.0881 0.24271,-0.066 0.35278,-0.13208 0.92625,-0.44111 -0.17639,-0.0443 0.70584,-0.35306 0.0881,0.13236 0.17639,0.24271 0.24243,0.35306 0.0443,0.11007 0.0443,0.26444 0.11034,0.35278 0.0883,0.11035 0.24272,0.15438 0.35278,0.24243 0.94855,-0.30875 -0.22041,0 0.70584,0 0.33076,0 0.68354,-0.22042 0.94827,-0.35278 0.11035,0.17639 0.37507,0.63952 0.59549,0.70584 0.28673,0.11007 0.6175,0.0881 0.92625,0.11007 0.13236,0.0443 0.24271,0.15437 0.35278,0.13236 0.28673,-0.044 0.57347,-0.35278 0.8382,-0.48514 0.11006,-0.044 0.24243,-0.044 0.35277,-0.11035 0.24272,-0.13208 0.46313,-0.30875 0.70584,-0.46313 0.11007,-0.0881 0.35278,-0.24243 0.35278,-0.24243 0,0.066 -0.044,1.03661 0.46313,0.81591 0.13236,-0.044 0.15437,-0.22042 0.24243,-0.35278 0.15437,0.044 0.33104,0.022 0.46312,0.13236 0.0883,0.066 0.0223,0.26444 0.11035,0.35278 0.0883,0.0883 0.24271,0.066 0.35278,0.11035 0.28674,-0.0443 0.55146,-0.0663 0.8382,-0.11035 0.22041,-0.044 0.37479,-0.13236 0.57347,-0.24271"
       style="fill:none;stroke:#000000;stroke-width:0.94830716px;stroke-linecap:butt;stroke-linejoin:round;stroke-miterlimit:10;stroke-dasharray:none;stroke-opacity:1" />
  </g>
</svg>
